<svg width="1834" height="948" viewBox="0 0 1834 948" fill="none" xmlns="http://www.w3.org/2000/svg">
<path fill-rule="evenodd" clip-rule="evenodd" d="M687.19 630C861.157 630 1002.19 488.97 1002.19 315C1002.19 291.297 999.57 268.206 994.607 246H379.771C384.431 225.144 391.16 205.069 399.731 186H974.647C925.366 76.3528 815.193 0 687.188 0C559.183 0.00109378 449.011 76.3536 399.731 186C391.16 205.069 384.431 225.144 379.771 246C375.438 265.386 372.893 285.447 372.316 306L669.187 306L708.31 366H376.298C379.676 386.751 385.081 406.821 392.304 426C400.281 447.18 410.471 467.275 422.598 486C472.105 562.445 553.843 616.076 648.57 627.656C661.226 629.204 674.116 630 687.19 630ZM422.598 486C410.471 467.275 400.281 447.18 392.304 426L609.187 426L648.307 486H422.598ZM906.188 303H834.188L873.188 363H945.188L906.188 303Z" fill="black"/>
<path d="M328.887 426C335.335 446.835 343.549 466.893 353.356 486H286.166L246.967 426H328.887Z" fill="black"/>
<path d="M315.626 366C313.359 349.324 312.188 332.299 312.188 315C312.188 311.992 312.223 308.991 312.293 306H0L39.1875 366H315.626Z" fill="black"/>
<path d="M318.522 246C322.362 225.356 327.892 205.306 334.965 186L90.1875 186L129.387 246H318.522Z" fill="black"/>
<path d="M1059.15 363C1050.68 429.232 1024.94 490.064 986.59 540.833C1043.33 596.016 1120.79 630 1206.19 630C1317.12 630 1414.66 572.659 1470.78 486L1374.2 486L1413.4 426L1501.08 426C1508.3 406.821 1513.7 386.751 1517.08 366L1314.2 366L1353.4 306L1521.06 306C1520.49 285.447 1517.94 265.386 1513.61 246H1055.86C1059.32 264.643 1061.41 283.77 1062.01 303.273L1062.19 303H1134.19L1095.19 363H1059.15Z" fill="black"/>
<path d="M1039.41 186C1026.58 150.979 1008.68 118.404 986.59 89.1665C1043.33 33.9842 1120.79 0 1206.19 0H1206.2C1334.2 0.00232562 1444.37 76.3545 1493.65 186H1039.41Z" fill="black"/>
<path d="M1794.2 486L1540.02 486C1549.83 466.893 1558.04 446.835 1564.49 426L1833.2 426L1794.2 486Z" fill="black"/>
<path d="M1652.99 366L1577.75 366C1580.02 349.324 1581.19 332.299 1581.19 315C1581.19 311.992 1581.15 308.991 1581.08 306L1692.2 306L1652.99 366Z" fill="black"/>
<path d="M1731.4 246L1574.86 246C1571.02 225.356 1565.49 205.306 1558.41 186L1770.58 186L1731.4 246Z" fill="black"/>
<path d="M1393.65 916.2L1379.87 936H1324.65L1390.18 840H1461.42L1494.05 936H1441.25L1435.2 918.486L1421.08 876.5L1393.73 916.2H1393.65Z" fill="black"/>
<path d="M1524.11 840L1507.66 936H1616.12L1623.38 895.3H1562.44L1571.89 840H1524.11Z" fill="black"/>
<path d="M1575.3 820H1527.54L1534.06 782H1581.8L1575.3 820Z" fill="black"/>
<path d="M1652.18 840C1652.35 840.697 1652.55 841.384 1652.77 842.06C1654.53 847.34 1657.1 852.106 1660.47 856.36C1663.99 860.467 1667.88 864.06 1672.13 867.14C1676.53 870.073 1680.93 872.493 1685.33 874.4C1690.61 876.453 1695.16 878.36 1698.97 880.12C1702.93 881.733 1705.87 883.42 1707.77 885.18C1709.68 886.94 1710.27 889.213 1709.53 892C1709.09 894.2 1707.99 896.033 1706.23 897.5C1704.62 898.82 1702.64 899.846 1700.29 900.58C1698.09 901.167 1695.82 901.46 1693.47 901.46C1688.78 901.46 1684.53 900.433 1680.71 898.38C1676.9 896.326 1673.53 893.467 1670.59 889.8C1667.66 886.133 1665.09 882.027 1662.89 877.48L1627.91 900.8C1630.7 909.013 1635.1 916.273 1641.11 922.58C1647.13 928.886 1654.31 933.727 1662.67 937.1C1671.18 940.62 1680.49 942.453 1690.61 942.6C1701.32 942.6 1711.59 940.62 1721.41 936.66C1731.39 932.846 1739.82 927.2 1746.71 919.72C1753.75 912.093 1758.08 902.707 1759.69 891.56C1760.72 883.933 1760.13 877.04 1757.93 870.88C1755.88 864.573 1752.36 859.073 1747.37 854.38C1742.39 849.54 1736.08 845.727 1728.45 842.94C1725.86 841.903 1722.98 840.923 1719.81 840H1652.18Z" fill="black"/>
<path d="M1703.17 820H1652.14C1653.99 811.532 1657.8 804.292 1663.55 798.28C1670.15 791.386 1678.15 786.18 1687.53 782.66C1697.07 779.14 1706.97 777.453 1717.23 777.6C1727.06 777.6 1735.57 779.213 1742.75 782.44C1749.94 785.52 1755.95 789.7 1760.79 794.98C1765.78 800.113 1769.59 805.833 1772.23 812.14L1734.83 831.5C1733.07 828.42 1731.09 825.853 1728.89 823.8C1726.84 821.6 1724.57 819.987 1722.07 818.96C1719.58 817.787 1716.79 817.2 1713.71 817.2C1711.81 817.2 1709.83 817.493 1707.77 818.08C1706.02 818.454 1704.49 819.094 1703.17 820Z" fill="black"/>
<path d="M1454.62 820H1403.83L1437.73 770.34L1454.62 820Z" fill="black"/>
<path d="M1351.16 820L1376.52 782H1319.32L1298.86 820H1351.16Z" fill="black"/>
<path d="M1271 820L1262.34 782H1207.12L1220.67 820H1271Z" fill="black"/>
<path fill-rule="evenodd" clip-rule="evenodd" d="M1227.79 840L1266.08 947.44L1337.8 840H1227.79ZM1279.48 856H1279.2L1279.28 856.36L1279.48 856Z" fill="black"/>
<path d="M1184.09 840L1167.63 936H1118.79L1135.25 840H1184.09Z" fill="black"/>
<path d="M1187.51 820L1194.03 782H1145.19L1138.67 820H1187.51Z" fill="black"/>
<path d="M1113.12 820C1112.44 815.217 1111.05 810.837 1108.95 806.86C1104.99 798.94 1098.69 792.853 1090.03 788.6C1081.38 784.2 1070.67 782 1057.91 782H995.873L989.358 820H1113.12Z" fill="black"/>
<path d="M985.93 840L969.473 936H1017.21L1025.51 887.6H1031.98L1050.21 936H1103.89L1077.88 881.054C1087.82 876.809 1095.83 870.777 1101.91 862.96C1107.07 856.333 1110.53 848.68 1112.29 840H985.93Z" fill="black"/>
<path d="M446.736 782H492.276L485.796 820L440.044 820L446.736 782Z" fill="black"/>
<path d="M399.724 820L350.596 774.74L342.878 820L399.724 820Z" fill="black"/>
<path d="M315.878 820L322.609 782H213.929L207.415 820L315.878 820Z" fill="black"/>
<path d="M203.987 840H308.414L302.149 875.5H243.441L239.669 897.5H302.809L295.989 936H187.529L203.987 840Z" fill="black"/>
<path d="M193.1 820L199.726 782H66.6256L60 820L193.1 820Z" fill="black"/>
<path d="M99.4443 840H147.184L130.646 936H82.9056L99.4443 840Z" fill="black"/>
<path d="M339.467 840L482.385 840L464.776 943.26L380.736 866.04L368.636 936H323.096L339.467 840Z" fill="black"/>
<path d="M511.342 840L494.971 936H540.511L552.611 866.04L636.651 943.26L654.26 840L511.342 840Z" fill="black"/>
<path d="M683.303 840L666.846 936H715.686L732.143 840L683.303 840Z" fill="black"/>
<path d="M735.571 820L686.731 820L693.246 782H742.086L735.571 820Z" fill="black"/>
<path d="M766.462 840C766.641 840.697 766.84 841.384 767.059 842.06C768.819 847.34 771.386 852.107 774.759 856.36C778.279 860.467 782.166 864.06 786.419 867.14C790.819 870.074 795.219 872.494 799.619 874.4C804.899 876.454 809.446 878.36 813.259 880.12C817.219 881.734 820.152 883.42 822.059 885.18C823.966 886.94 824.552 889.214 823.819 892C823.379 894.2 822.279 896.034 820.519 897.5C818.906 898.82 816.926 899.847 814.579 900.58C812.379 901.167 810.106 901.46 807.759 901.46C803.066 901.46 798.812 900.434 794.999 898.38C791.186 896.327 787.812 893.467 784.879 889.8C781.946 886.134 779.379 882.027 777.179 877.48L742.199 900.8C744.986 909.014 749.386 916.274 755.399 922.58C761.412 928.887 768.599 933.727 776.959 937.1C785.466 940.62 794.779 942.454 804.899 942.6C815.606 942.6 825.872 940.62 835.699 936.66C845.672 932.847 854.106 927.2 860.999 919.72C868.039 912.094 872.366 902.707 873.979 891.56C875.006 883.934 874.419 877.04 872.219 870.88C870.166 864.574 866.646 859.074 861.659 854.38C856.672 849.54 850.366 845.727 842.739 842.94C840.146 841.903 837.266 840.923 834.099 840H766.462Z" fill="black"/>
<path d="M817.454 820L766.427 820C768.278 811.533 772.083 804.293 777.839 798.28C784.439 791.387 792.432 786.18 801.819 782.66C811.352 779.14 821.253 777.454 831.519 777.6C841.346 777.6 849.853 779.214 857.039 782.44C864.226 785.52 870.239 789.7 875.079 794.98C880.066 800.114 883.879 805.834 886.519 812.14L849.119 831.5C847.359 828.42 845.379 825.854 843.179 823.8C841.126 821.6 838.853 819.987 836.359 818.96C833.866 817.787 831.079 817.2 827.999 817.2C826.092 817.2 824.112 817.494 822.059 818.08C820.312 818.455 818.777 819.095 817.454 820Z" fill="black"/>
<path d="M657.671 820L611.919 820L618.611 782H664.151L657.671 820Z" fill="black"/>
<path d="M571.599 820L522.471 774.74L514.753 820L571.599 820Z" fill="black"/>
</svg>
