<svg width="1024" height="1024" viewBox="0 0 1024 1024" fill="none" xmlns="http://www.w3.org/2000/svg">
<g clip-path="url(#clip0_2012_13)">
<rect width="1024" height="1024" fill="white"/>
<rect width="1024" height="1024" fill="url(#paint0_linear_2012_13)"/>
<rect width="1024" height="1024" fill="url(#paint1_linear_2012_13)"/>
<path d="M213.508 336V306.96H258.628V194.64H256.468L222.388 239.28L199.348 221.28L239.428 168.48H294.628V306.96H330.148V336H213.508ZM737.961 309.36L717.081 294.72L732.201 272.88L744.681 262.8L728.361 266.64H703.161V240.72H728.361L744.681 244.56L732.201 234.48L717.081 212.64L737.961 198L755.721 222.96L759.081 237.6L762.441 222.96L780.201 198L801.081 212.64L785.961 234.48L773.481 244.56L789.801 240.72H815.241V266.64H789.801L773.481 262.8L785.961 272.88L801.081 294.72L780.201 309.36L762.441 284.4L759.081 269.76L755.721 284.4L737.961 309.36ZM246.701 576H211.181V408.48H275.981C284.141 408.48 291.421 409.76 297.821 412.32C304.221 414.72 309.581 418.24 313.901 422.88C318.381 427.52 321.741 433.12 323.981 439.68C326.221 446.24 327.341 453.6 327.341 461.76C327.341 473.6 324.781 483.76 319.661 492.24C314.541 500.72 307.261 506.32 297.821 509.04L330.701 576H291.341L263.261 513.84H246.701V576ZM267.341 486C275.821 486 281.661 484.4 284.861 481.2C288.221 478 289.901 472.72 289.901 465.36V458.16C289.901 450.8 288.221 445.52 284.861 442.32C281.661 439.12 275.821 437.52 267.341 437.52H246.701V486H267.341ZM733.713 576L689.313 408.48H729.393L749.073 493.68L758.913 541.92H760.833L770.913 493.68L790.833 408.48H828.993L784.593 576H733.713ZM297.341 816L286.781 775.68H240.941L230.621 816H194.141L239.501 648.48H290.381L335.741 816H297.341ZM264.941 683.28H263.021L246.701 746.64H281.261L264.941 683.28ZM462.127 816V648.48H498.367V786.48H570.367V816H462.127ZM756.513 818.88C742.433 818.88 730.193 816.56 719.793 811.92C709.393 807.28 700.993 800.96 694.593 792.96L715.473 769.92C721.553 776.64 728.193 781.6 735.393 784.8C742.753 788 750.193 789.6 757.713 789.6C766.353 789.6 772.913 787.68 777.393 783.84C781.873 780 784.113 774.48 784.113 767.28C784.113 761.36 782.353 756.88 778.833 753.84C775.473 750.8 769.713 748.64 761.553 747.36L744.033 744.48C728.993 741.92 718.113 736.4 711.393 727.92C704.673 719.28 701.313 708.8 701.313 696.48C701.313 680.32 706.593 667.84 717.153 659.04C727.713 650.08 742.513 645.6 761.553 645.6C774.513 645.6 785.793 647.6 795.393 651.6C804.993 655.6 812.753 661.04 818.673 667.92L798.273 690.72C793.793 685.76 788.513 681.92 782.433 679.2C776.353 676.32 769.473 674.88 761.793 674.88C745.633 674.88 737.553 681.52 737.553 694.8C737.553 700.56 739.313 704.88 742.833 707.76C746.513 710.64 752.433 712.8 760.593 714.24L778.113 717.36C791.713 719.76 802.193 724.88 809.553 732.72C816.913 740.56 820.593 751.12 820.593 764.4C820.593 772.24 819.233 779.52 816.513 786.24C813.793 792.8 809.713 798.56 804.273 803.52C798.833 808.32 792.113 812.08 784.113 814.8C776.273 817.52 767.073 818.88 756.513 818.88Z" fill="white"/>
<path fill-rule="evenodd" clip-rule="evenodd" d="M484.87 408.423C476.176 406.562 468.219 403.754 461 400C479.415 423.783 493.25 448.21 495.134 470.73L486.022 470.726L486.018 484.772H489.913L489.913 579.244L486.018 579.244L486.018 593.278L537.346 593.291L537.355 579.249L533.464 579.253L533.469 484.777L537.36 484.772L537.355 470.743L529.479 470.721C531.361 448.231 545.159 423.85 563.527 400.101C562.801 400.48 562.067 400.853 561.328 401.217C554.729 404.435 547.516 406.872 539.689 408.529C532.559 424.163 521.251 445.368 512.311 445.368C503.333 445.368 491.993 424.07 484.87 408.423Z" fill="white"/>
<path d="M511.949 405.76C488.429 405.76 468.829 400.72 453.149 390.64C437.469 380.4 425.069 366.88 415.949 350.08C406.829 333.12 400.269 314.4 396.269 293.92C392.429 273.44 390.509 252.8 390.509 232C390.509 216 391.629 199.84 393.869 183.52C396.269 167.04 400.189 151.36 405.629 136.48C411.229 121.6 418.669 108.24 427.949 96.4002C437.229 84.5602 448.749 75.2802 462.509 68.5602C476.429 61.6802 492.909 58.2402 511.949 58.2402C535.629 58.2402 555.309 63.2802 570.989 73.3602C586.669 83.4402 599.069 96.9602 608.189 113.92C617.469 130.72 624.029 149.36 627.869 169.84C631.869 190.32 633.869 211.04 633.869 232C633.869 248 632.669 264.24 630.269 280.72C627.869 297.04 623.869 312.64 618.269 327.52C612.829 342.4 605.389 355.76 595.949 367.6C586.669 379.44 575.069 388.8 561.149 395.68C547.389 402.4 530.989 405.76 511.949 405.76ZM511.949 352C524.749 352 535.309 348.56 543.629 341.68C551.949 334.64 558.429 325.28 563.069 313.6C567.869 301.92 571.229 289.04 573.149 274.96C575.229 260.72 576.269 246.4 576.269 232C576.269 217.12 575.229 202.56 573.149 188.32C571.069 174.08 567.629 161.2 562.829 149.68C558.029 138.16 551.469 129.04 543.149 122.32C534.829 115.44 524.429 112 511.949 112C499.309 112 488.749 115.52 480.269 122.56C471.949 129.44 465.389 138.72 460.589 150.4C455.949 162.08 452.589 175.04 450.509 189.28C448.589 203.36 447.629 217.6 447.629 232C447.629 246.88 448.589 261.44 450.509 275.68C452.589 289.92 456.029 302.8 460.829 314.32C465.629 325.84 472.189 335.04 480.509 341.92C488.829 348.64 499.309 352 511.949 352ZM511.949 288.5C502.349 288.5 494.349 285.22 487.949 278.66C481.549 272.1 478.349 264.02 478.349 254.42C478.349 244.98 481.549 237.06 487.949 230.66C494.349 224.1 502.349 220.82 511.949 220.82C521.549 220.82 529.629 224.1 536.189 230.66C542.749 237.06 546.029 244.98 546.029 254.42C546.029 264.02 542.749 272.1 536.189 278.66C529.629 285.22 521.549 288.5 511.949 288.5Z" fill="white"/>
</g>
<defs>
<linearGradient id="paint0_linear_2012_13" x1="1024" y1="1146.16" x2="208.393" y2="-139.228" gradientUnits="userSpaceOnUse">
<stop stop-color="#00F260"/>
<stop offset="1" stop-color="#0575E6"/>
</linearGradient>
<linearGradient id="paint1_linear_2012_13" x1="1024" y1="1146.16" x2="208.393" y2="-139.228" gradientUnits="userSpaceOnUse">
<stop stop-color="#00F260"/>
<stop offset="1" stop-color="#0575E6"/>
</linearGradient>
<clipPath id="clip0_2012_13">
<rect width="1024" height="1024" fill="white"/>
</clipPath>
</defs>
</svg>
