<svg width="150" height="150" viewBox="0 0 150 150" fill="none" xmlns="http://www.w3.org/2000/svg">
<path d="M0 26.3158C0 11.782 11.782 0 26.3158 0H123.684C138.218 0 150 11.782 150 26.3158V123.684C150 138.218 138.218 150 123.684 150H26.3158C11.782 150 0 138.218 0 123.684V26.3158Z" fill="white"/>
<mask id="mask0_16_195" style="mask-type:alpha" maskUnits="userSpaceOnUse" x="26" y="51" width="98" height="49">
<path d="M88.4943 98.1727V84.0865C88.4637 78.9341 88.5862 69.107 88.8616 54.6053V52.0499C88.8616 51.5928 88.9229 51.3227 89.0453 51.2396H104.839C104.992 51.2396 105.299 52.0291 105.758 53.6081C106.232 55.187 106.798 57.2231 107.456 59.7162C108.13 62.1886 108.604 63.8922 108.88 64.8271L112.094 76.2332V64.1415C112.094 63.1027 112.109 61.2017 112.14 58.4385C112.185 55.6545 112.201 53.4834 112.185 51.9252C112.185 51.3435 113.41 51.0526 115.859 51.0526C116.624 51.0526 117.672 51.0734 119.004 51.1149C120.335 51.1565 121.154 51.1773 121.46 51.1773H123.205C123.449 51.1773 123.572 51.2396 123.572 51.3643C123.664 57.14 123.71 65.4089 123.71 76.1708V97.7987C123.603 98.3389 123.113 98.609 122.24 98.609H121.644C120.848 98.609 119.677 98.6297 118.131 98.6713C116.585 98.7128 115.415 98.7336 114.619 98.7336H107.87C107.655 98.6297 107.212 97.3209 106.538 94.8069C105.819 92.0853 104.748 88.1482 103.324 82.9958C101.901 77.8433 101.105 74.9658 100.937 74.3633C100.937 75.5891 100.929 77.4174 100.914 79.8482C100.899 82.279 100.891 84.1073 100.891 85.3331C100.891 86.2472 100.906 87.6184 100.937 89.4467C100.967 91.275 100.983 92.6462 100.983 93.5604V97.4871C100.983 98.4428 100.677 98.9206 100.064 98.9206H89.5044L88.4943 98.1727ZM123.572 51.3019V51.4266V51.3019Z" fill="#FEFEFE"/>
<path d="M58.7886 96.9261V95.7419C58.7886 92.1892 58.8192 86.9432 58.8805 80.004C58.9417 73.0648 58.9723 67.8189 58.9723 64.2662V51.3643H85.6937V61.5861C85.6937 61.6484 85.6937 61.8042 85.6937 62.0535C85.6937 62.3028 85.6937 62.4691 85.6937 62.5522C85.6937 62.6353 85.686 62.7911 85.6707 63.0196C85.6554 63.2274 85.6248 63.3728 85.5789 63.4559C85.5483 63.539 85.4947 63.6637 85.4182 63.8299C85.357 63.9753 85.2805 64.0792 85.1886 64.1415C85.0968 64.2039 84.9744 64.2662 84.8213 64.3285C84.6683 64.3701 84.4999 64.3908 84.3163 64.3908H83.6735C79.7097 64.3908 76.0979 64.3077 72.838 64.1415C72.8074 64.4739 72.7539 64.9933 72.6773 65.6997C72.6161 66.3853 72.5625 66.9982 72.5166 67.5384C72.486 68.0578 72.4707 68.5668 72.4707 69.0654H83.398C83.8572 69.0654 84.1632 69.1485 84.3163 69.3148C84.4693 69.481 84.5459 69.7511 84.5459 70.125C84.5459 70.2289 84.5382 70.3951 84.5229 70.6236C84.5076 70.8522 84.4999 71.0184 84.4999 71.1223C84.4999 72.1195 84.5229 73.5946 84.5688 75.5476C84.6147 77.5005 84.6377 78.9756 84.6377 79.9729C84.5918 80.3884 84.4693 80.5961 84.2704 80.5961C84.1785 80.5961 84.102 80.5546 84.0408 80.4715C79.2046 80.8039 75.6234 80.9701 73.2972 80.9701H72.7003V85.4577C74.0624 85.4577 76.029 85.3746 78.6001 85.2084C81.1865 85.0422 83.1225 84.9591 84.4081 84.9591C85.4182 84.9591 85.9998 85.25 86.1528 85.8317V88.2002C86.1528 89.1974 86.1681 90.6725 86.1987 92.6255C86.2293 94.5784 86.2446 96.0535 86.2446 97.0508C86.2446 98.0896 85.9385 98.609 85.3264 98.609C84.5305 98.609 83.3062 98.5986 81.6533 98.5778C80.0005 98.557 78.7455 98.5466 77.8885 98.5466C75.6846 98.5466 72.5319 98.6194 68.4304 98.7648C64.3288 98.931 61.3598 99.0245 59.5232 99.0453L58.8805 98.048C58.8192 97.4663 58.7886 97.0923 58.7886 96.9261Z" fill="#FEFEFE"/>
<path d="M26.0526 60.7134C26.0526 60.3395 26.0679 59.7889 26.0985 59.0618C26.1291 58.3138 26.1444 57.8048 26.1444 57.5347C26.1444 57.4308 26.1291 57.0569 26.0985 56.4128C26.0679 55.7688 26.0526 55.2078 26.0526 54.7299C26.0526 52.5277 26.2057 51.4266 26.5117 51.4266C26.6342 51.4266 26.7413 51.4473 26.8331 51.4889C30.0317 51.4889 34.7684 51.4369 41.0432 51.3331C47.3333 51.2292 52.0394 51.1772 55.1615 51.1772C55.942 51.1772 56.4317 51.2707 56.6307 51.4577C56.845 51.6447 56.9521 52.0083 56.9521 52.5485V53.4211C56.9521 54.5014 56.9597 56.1012 56.975 58.2203C56.9904 60.3187 56.998 61.9185 56.998 63.0196C56.998 64.0999 56.7837 64.6401 56.3552 64.6401C55.4982 64.6401 54.2203 64.6193 52.5215 64.5778C50.8227 64.5362 49.5448 64.5155 48.6877 64.5155V97.9233C48.5806 98.5466 48.3204 98.879 47.9072 98.9206C47.3716 98.9206 46.591 98.9102 45.5657 98.8894C44.5403 98.8686 43.7597 98.8583 43.2241 98.8583C43.1935 98.8583 43.1629 98.879 43.1323 98.9206C42.4589 98.9206 41.51 98.9102 40.2857 98.8894C39.0766 98.8686 38.1737 98.8583 37.5768 98.8583H36.1994C35.8933 98.8998 35.4495 98.9206 34.8679 98.9206L33.9497 97.4247C33.9497 94.2667 34.0262 89.5714 34.1792 83.3386C34.3323 77.1057 34.4088 72.4104 34.4088 69.2524C34.4088 69.107 34.4011 68.868 34.3858 68.5356C34.3858 68.2032 34.3858 67.9331 34.3858 67.7254C34.3858 67.5176 34.3705 67.2579 34.3399 66.9463C34.3246 66.6346 34.2864 66.3853 34.2251 66.1983C34.1792 65.9906 34.118 65.7932 34.0415 65.6062C33.965 65.3984 33.8578 65.253 33.7201 65.1699C33.5977 65.066 33.4446 65.0141 33.261 65.0141H26.6954C26.2669 64.8479 26.0526 63.4143 26.0526 60.7134Z" fill="#FEFEFE"/>
</mask>
<g mask="url(#mask0_16_195)">
<path d="M-32.8618 -14.2763C-32.8618 -28.8101 -21.0798 -40.592 -6.54603 -40.592H174.025C188.559 -40.592 200.341 -28.8101 200.341 -14.2763V166.295C200.341 180.829 188.559 192.611 174.025 192.611H-6.54603C-21.0798 192.611 -32.8618 180.829 -32.8618 166.295V-14.2763Z" fill="url(#paint0_linear_16_195)"/>
</g>
<path d="M107.729 53.9344C107.729 53.9344 108.166 53.4898 107.948 53.8233C107.838 53.99 107.729 53.99 107.729 53.9344ZM114.397 50.7113C114.342 50.7668 114.616 50.4334 114.616 50.6001C114.67 50.6557 114.397 50.8224 114.397 50.7113ZM101.116 54.1567C101.171 53.9344 101.498 54.2123 101.28 54.2123C101.171 54.2123 101.116 54.2123 101.116 54.1567ZM96.4702 61.1032C96.5249 61.1587 96.1423 61.1587 96.3063 61.1032C96.3609 61.0476 96.4702 61.0476 96.4702 61.1032ZM94.612 67.7718C94.7213 67.8829 94.3387 68.4386 94.3387 68.1608C94.3387 67.994 94.5573 67.7162 94.612 67.7718ZM92.863 58.3246C92.8084 58.3802 92.7537 58.3246 92.7537 58.269C92.7537 57.88 93.1363 58.2134 92.863 58.3246ZM92.7537 59.7694C92.863 59.6583 92.4804 59.3804 92.5351 59.436C92.6444 59.4916 92.6991 59.436 92.6444 59.2693C92.6444 58.9359 92.6444 58.8247 92.7537 58.8803C92.9177 58.9359 92.6991 58.6024 92.6444 58.7136C92.5351 58.6024 93.2456 58.2134 93.3003 58.2134C93.4096 58.3246 93.191 58.6024 93.4642 58.658C93.6282 58.7136 93.5735 59.1582 93.7375 58.8247C93.8468 58.5469 93.7375 58.269 93.6282 58.3802C93.5735 58.3802 93.5189 58.3802 93.5735 58.3246C93.6282 58.269 93.5735 58.2134 93.5189 58.2134C93.4096 58.1579 94.448 58.1023 93.9015 58.0467C93.7375 58.1023 93.6282 57.7689 93.7922 57.8244C93.8468 57.8244 93.9015 57.8244 93.9561 57.7689C93.9561 57.7133 93.9561 57.7133 93.9561 57.7133C93.7922 57.7689 93.4642 57.6021 93.7375 57.491C93.8468 57.3799 94.2294 57.5466 94.3387 57.3799C94.3934 57.2687 94.5027 57.2687 94.612 57.2687C94.3387 56.9909 94.0108 57.102 96.033 57.102C97.1261 57.102 97.3447 57.102 97.2354 57.3799C97.1807 57.491 97.3447 57.6577 97.3994 57.491C97.2901 57.3243 98.3285 57.5466 98.2738 57.3799C98.2192 57.2687 98.0006 57.491 98.0006 57.3243C97.9459 57.2131 98.7111 57.4354 98.5471 57.2687C98.4378 57.0464 98.875 57.3243 98.9297 57.2687C99.6402 57.1576 102.428 57.4354 102.974 57.102C102.81 56.8797 102.592 56.1017 102.373 55.9906C102.045 55.8794 101.498 54.6013 101.662 54.6569C101.881 54.8236 102.318 55.8239 102.592 55.8239C102.646 55.6571 102.428 55.6571 102.428 55.4904C102.428 55.4349 102.373 55.3793 102.373 55.4349C102.264 55.4904 102.154 55.2126 102.264 55.1014C102.264 55.0459 102.264 55.0459 102.209 55.0459C102.1 55.1014 101.826 54.768 101.826 54.5457C101.826 54.4346 101.444 54.2679 101.553 54.1011C101.553 54.0456 101.553 54.0456 101.498 54.1011C101.444 54.1011 101.389 54.0456 101.28 53.99C101.171 53.7677 101.444 53.8233 101.171 53.6566C101.061 53.601 101.007 53.0453 100.733 52.9897C100.624 52.9897 100.843 52.823 100.679 52.823C100.624 52.823 100.624 52.7674 100.624 52.7674C100.679 52.6563 100.46 52.434 100.624 52.3228C100.679 52.2117 100.679 52.2117 100.569 52.2673C100.405 52.3784 100.296 51.6004 100.077 51.656C99.9135 51.656 100.241 51.5448 100.023 51.4337C99.8042 51.1558 100.023 51.8227 99.7495 51.6004C99.6949 51.4893 99.6402 51.4337 99.6949 51.3781C99.5855 51.1003 99.3123 49.8777 99.0937 49.711C98.875 49.711 98.7657 49.0997 98.9843 49.4887C99.039 49.5998 99.1483 49.6554 99.1483 49.5443C98.3831 48.544 99.6402 49.8221 99.039 48.2105C99.039 47.8771 99.6402 47.766 99.5855 47.4325C99.5309 47.2103 99.7495 46.988 99.9681 46.988C100.077 46.988 100.187 46.9324 100.132 46.8768C100.077 46.7657 100.296 46.6545 100.405 46.7657C100.46 46.7657 100.515 46.7657 100.515 46.6545C100.515 46.4878 100.679 46.8213 100.843 46.8213C101.225 46.9324 100.897 46.3211 101.225 46.7101C101.772 47.0991 102.264 46.4878 102.373 47.5993C102.428 48.2105 102.592 48.155 102.592 48.4884C102.81 48.5995 102.592 49.3775 102.756 49.2664C102.756 49.2108 102.865 49.2108 102.974 49.322C103.193 49.4331 102.592 48.9885 102.919 48.9885C103.083 48.933 103.083 48.933 102.865 48.8774C102.756 48.8218 102.701 48.7663 102.756 48.7663C102.974 48.7107 102.701 48.0994 102.646 47.8771C103.193 47.9883 102.865 47.9327 102.919 48.2661C102.974 48.3773 102.974 48.4328 103.029 48.4328C103.138 48.3773 103.247 48.7107 103.193 48.8218C103.083 48.9885 103.521 48.8218 103.466 49.0441C103.411 49.3775 104.067 50.7113 104.122 50.9891C104.067 51.1003 104.067 51.1558 104.177 51.1003C104.177 51.0447 104.231 51.1003 104.231 51.1558C104.231 51.3781 104.395 51.9338 104.45 51.9338C104.614 51.9338 104.559 52.5451 104.723 52.5451C104.778 52.5451 104.778 52.6007 104.723 52.7118C104.504 52.9341 104.887 52.7118 104.887 52.6007C104.887 52.4896 105.051 52.6563 104.996 52.7118C105.16 52.9341 105.707 54.379 105.816 54.6013C105.98 54.8236 105.98 55.546 106.199 55.546C106.472 55.6016 105.871 55.3793 106.199 55.3793C106.253 55.3793 106.363 55.4904 106.363 55.546C106.636 56.1017 107.019 54.8236 107.51 54.5457C107.838 54.2679 108.112 54.1011 108.057 54.1567C108.002 54.2679 108.002 54.2679 108.112 54.1567C108.276 54.0456 108.276 53.601 108.166 53.7121C108.44 53.1008 108.768 53.0453 109.369 52.4896C109.697 52.1561 109.97 51.9338 110.025 51.9894C110.079 52.045 110.079 51.9894 110.079 51.9338C109.97 51.8227 110.353 51.6004 110.407 51.7671C110.462 51.8783 110.407 51.4337 110.516 51.3781C110.68 51.267 110.79 51.3781 110.626 51.6004C110.353 51.9338 111.118 51.4337 111.063 51.3781C111.063 51.267 110.79 51.5448 110.79 51.4337C110.844 50.9891 111.446 51.3781 111.5 50.9891C111.391 50.9891 111.937 50.3223 111.828 50.6557C111.774 50.7113 111.828 50.7113 111.883 50.5446C111.992 50.2667 112.375 50.1556 112.429 49.9888C112.32 49.9333 112.812 49.6554 112.976 49.711C113.085 49.7665 113.085 49.711 113.031 49.6554C112.976 49.5443 112.976 49.5443 113.085 49.5998C113.195 49.711 113.468 49.322 113.359 49.6554C113.304 49.8777 113.522 49.9888 113.468 49.7665C113.413 49.6554 113.632 49.4331 113.741 49.5443C113.796 49.6554 113.522 49.6554 113.632 49.7665C113.85 49.8777 114.014 49.4331 113.85 49.2108C113.741 49.0997 113.796 48.933 114.069 48.8774C114.342 48.8218 114.288 49.2108 114.014 49.0997C113.905 49.0997 113.85 49.0997 113.96 49.1553C114.288 49.2108 113.796 49.8221 114.233 49.3775C114.506 49.0441 114.397 48.933 114.889 49.1553C114.998 49.2108 114.834 49.3775 114.998 49.4331C115.217 49.5443 114.834 49.8221 114.998 49.9888C115.107 50.0444 115.107 50.1 115.053 50.1556C114.889 50.2111 114.889 50.5446 114.725 50.489C114.506 50.4334 114.014 50.9336 114.014 51.1558C114.069 51.267 113.85 51.7671 113.85 51.4337C113.85 51.1003 113.632 51.7671 113.522 51.7116C113.14 51.7116 113.468 52.1006 113.632 51.8227C113.96 51.4337 113.468 52.3228 113.195 52.045C113.14 51.9894 113.14 52.045 113.195 52.1561C113.413 52.2673 113.14 52.434 113.195 52.3228C113.304 52.1561 113.195 52.1561 112.976 52.3784C112.703 52.6563 112.648 53.1564 112.156 53.3787C111.937 53.4898 111.883 53.4898 112.047 53.4898C112.484 53.3787 111.391 54.1567 111.5 54.2123C111.446 54.379 111.336 54.2679 111.172 54.4901C110.954 54.768 110.844 54.7124 110.68 54.8236C110.735 54.8791 110.189 55.3237 110.243 55.2126C110.298 55.157 110.189 55.2126 110.025 55.3793C109.751 55.6571 109.806 55.7683 109.642 55.9906C109.533 56.1017 109.697 56.2684 109.533 56.3796C109.259 56.6019 109.642 56.1573 109.533 56.1017C109.259 55.8239 109.369 56.2129 109.314 56.3796C109.259 56.4907 109.259 56.5463 109.314 56.5463C109.369 56.5463 109.369 56.6019 109.369 56.6574C109.314 56.7686 109.095 56.5463 109.041 56.6019C108.931 56.6019 108.713 56.8241 108.768 56.9353C108.822 56.9909 108.768 56.9909 108.713 56.9909C108.604 56.9909 108.33 57.2131 108.385 57.2687C108.44 57.3799 109.642 57.2131 109.642 57.491C109.587 57.6021 109.697 57.6577 109.806 57.491C109.861 57.491 110.899 57.6021 111.282 57.491C111.61 57.3799 111.391 57.6577 111.828 57.5466C112.156 57.491 112.648 57.7689 112.429 57.88C112.32 57.9356 112.648 57.9356 112.921 57.8244C113.249 57.7133 112.648 57.9356 113.249 57.9356C113.632 57.9912 113.686 57.9911 113.741 57.8244C113.577 57.5466 114.889 57.7689 114.889 57.8244C114.998 57.9356 115.053 58.5469 115.107 58.658C115.217 58.8247 115.49 58.658 115.545 58.4913C115.599 58.1023 116.037 58.7136 115.982 58.8247C116.146 58.7136 117.239 58.658 117.403 58.8803C117.403 58.9359 117.458 58.9359 117.512 58.8803C117.731 58.7692 118.387 58.8803 118.277 59.1582C118.496 59.7139 118.496 59.5472 118.059 59.6583C117.786 59.7694 118.332 59.6583 118.277 59.8806C118.277 60.1584 117.949 59.9362 117.84 60.0473C117.567 60.1029 117.895 60.2696 117.84 60.3807C117.731 60.4919 116.638 60.6586 116.474 60.603C116.365 60.603 116.31 60.603 116.365 60.6586C116.419 60.7697 115.599 60.6586 115.49 60.5474C115.381 60.3252 115.107 60.9364 115.217 60.5474C115.271 60.4363 115.107 60.1584 115.107 60.3807C115.162 60.4919 115.162 60.5474 115.053 60.603C114.889 60.5474 114.943 60.3252 114.561 60.4363C114.069 60.4363 114.67 60.603 114.288 60.603C114.014 60.603 114.288 60.4363 113.96 60.4363C113.249 60.3807 113.14 60.3807 113.031 60.2696C112.867 60.0473 112.539 60.2696 112.812 60.3252C112.867 60.2696 112.921 60.3252 112.921 60.3807C113.085 60.7697 112.429 60.3252 112.484 60.1584C112.539 60.1584 112.484 60.1029 112.429 60.1029C112.32 60.1029 112.265 60.1029 112.32 60.1584C112.429 60.2696 112.156 60.3807 111.883 60.3807C109.751 60.3807 110.954 59.9917 109.314 60.1584C108.385 60.214 108.44 60.1584 108.658 60.992C109.15 62.6036 109.642 63.9929 110.353 65.4933C111.063 66.9382 111.664 67.7162 111.774 68.9943C111.774 69.2722 111.828 69.6612 111.937 69.3833C111.937 69.2166 112.211 69.4389 112.211 69.3278C112.211 69.161 111.992 69.2722 112.101 69.1055C112.156 68.9388 112.375 69.4945 112.211 69.4389C112.047 69.55 112.211 69.6612 112.375 69.6056C112.484 69.5501 112.484 69.5501 112.375 69.6612C112.211 69.8835 112.429 70.2169 112.101 70.2169C111.992 70.2169 111.937 70.2169 111.992 70.2725C112.047 70.3836 111.992 70.3836 111.774 70.2725C111.664 70.2169 111.61 70.2169 111.61 70.2725C111.664 70.6059 111.5 71.0505 111.336 70.7171C111.336 70.6059 111.282 70.6059 111.282 70.7171C111.172 70.9393 111.118 70.5503 111.008 70.5503C110.844 70.5503 110.79 70.9949 110.899 70.9949C111.063 71.1061 111.063 71.3283 110.899 71.3283C110.516 71.2172 110.626 72.2731 110.79 71.9396C110.844 71.8285 110.899 71.7729 110.899 71.8285C110.899 72.1619 110.516 72.4398 110.407 72.2175C110.407 72.1619 110.407 72.1619 110.516 72.1619C110.844 72.2731 110.407 71.4951 110.298 71.4951C110.025 71.3283 110.462 71.7173 110.298 71.7173C110.243 71.7173 110.189 71.7729 110.189 71.8285C110.243 72.1063 110.353 71.4951 110.407 71.9396C110.407 71.9952 110.407 72.0508 110.353 71.9952C110.243 71.9396 109.642 72.6621 109.533 72.4953C109.423 72.4398 109.314 72.4398 109.15 72.5509C109.095 72.6065 109.041 72.6065 109.095 72.4953C109.259 72.3286 108.385 72.4953 108.44 72.2731C108.494 72.1063 108.221 72.2175 108.276 72.0508C107.729 71.9952 108.002 71.7729 107.729 71.4395C107.51 71.3839 107.729 70.6615 107.565 70.6615C107.51 70.6615 107.51 70.6059 107.51 70.5503C107.565 70.4392 107.838 70.6615 107.674 70.4392C107.62 70.3281 107.565 70.2725 107.62 70.3281C107.893 70.3836 107.565 70.0502 107.62 69.8835C107.565 69.3278 107.292 68.1608 107.183 68.2163C107.128 68.3275 106.964 67.6606 107.128 67.8273C107.347 67.994 106.964 67.4939 106.964 67.3828C106.964 66.9382 106.855 66.3269 106.636 65.9379C106.417 65.6045 106.855 65.9935 106.636 65.7712C106.363 64.493 105.98 63.1593 105.543 61.9367C105.543 61.9367 105.27 61.4922 105.379 61.4922C105.324 61.4366 104.395 61.4366 104.723 61.6589C104.778 61.7145 104.778 61.6589 104.723 61.6033C104.614 61.4366 105.051 61.6033 104.723 61.77C104.614 61.8812 104.614 61.8812 104.668 61.77C104.723 61.4366 104.122 62.8259 103.958 62.7703C103.794 62.8815 103.958 63.1593 103.849 63.2149C103.739 63.2705 103.739 63.2705 103.794 63.2149C103.849 63.1037 103.849 63.1037 103.739 63.1593C103.63 63.5483 102.1 64.8265 101.826 64.9376C101.608 65.1599 101.936 64.882 101.936 65.0487C101.608 65.4377 101.498 65.7156 101.171 66.049C100.679 66.4936 100.187 66.7715 100.624 66.2713C100.897 66.1046 100.624 66.1602 100.624 65.9935C100.569 66.049 99.9135 66.6048 99.8042 66.7715C99.8042 66.8826 99.4762 67.216 99.3669 67.3828C99.4762 67.2716 99.8042 67.1605 99.8042 67.0493C99.8042 66.9382 99.8588 66.9382 99.9681 66.9382C100.077 66.9382 100.023 66.7159 100.077 66.7715C100.569 66.8826 99.9135 67.1049 99.8042 67.3828C99.6949 67.605 99.6402 67.6606 99.4762 67.6606C99.4216 67.6606 98.9843 68.1052 98.7111 68.4386C98.4925 68.6609 98.4925 68.6609 98.6564 68.6053C98.8204 68.4386 98.3831 68.9943 98.1645 69.2166C98.0006 69.4945 97.5087 69.9946 97.1807 70.3281C97.2901 70.2725 96.9621 70.7726 96.9621 70.6615C96.9621 70.5503 96.6889 70.8282 96.6889 70.7726C96.5795 70.7171 96.2516 71.1061 96.2516 70.7726C96.2516 70.5503 95.8144 70.8282 95.7051 70.7171C95.5958 70.5503 95.0492 70.8282 95.1585 70.4948C95.2678 70.2169 94.7213 70.4392 94.7213 70.2725C94.7759 70.2169 94.5573 69.9946 94.448 70.1058C94.3387 70.1613 94.6666 69.7723 94.5573 69.8835C94.0654 69.8279 94.5573 69.2722 94.612 69.1055C94.448 68.6053 93.7922 69.4945 94.5573 68.3275C94.8306 68.1052 94.7213 67.4383 94.9399 67.6606C95.1585 67.8273 94.8306 67.4939 95.1585 67.4383C95.3771 67.3828 95.4865 67.2716 95.3225 67.2716C94.8306 67.3272 95.5958 66.9938 95.3771 66.827C95.3225 66.7159 95.3225 66.6603 95.3771 66.6603C95.4864 66.7159 95.869 66.2158 95.869 66.049C95.869 65.8823 96.2516 65.8268 96.197 65.66C96.1423 65.5489 96.3609 65.66 96.4156 65.5489C96.4156 65.4933 97.1261 64.8265 97.0168 64.8265C96.9075 64.882 97.454 64.1596 97.5087 64.2707C97.5633 64.3819 98.0552 63.7706 97.7819 63.9929C97.5087 64.2152 97.7273 63.9373 97.9459 63.7706C98.1099 63.6595 98.1645 63.6595 98.1099 63.7706C97.7273 64.2707 98.7111 63.326 98.7657 63.3816C98.9297 63.1593 99.0937 62.8815 99.7495 62.2146C100.351 61.6033 100.515 61.2699 100.569 61.1587C100.679 61.2143 100.788 61.1032 100.843 60.8809C100.515 60.7142 99.039 60.992 98.6018 60.992C98.3285 61.1032 98.1099 60.8253 97.9459 60.992C97.8366 61.0476 97.7819 61.0476 97.7273 60.992C97.7273 60.8809 96.9075 60.8253 97.2354 60.992C97.5633 61.1032 97.0714 61.0476 96.9621 61.1032C96.7435 61.0476 96.9621 60.9364 95.8144 60.992C94.612 61.1032 95.0492 60.9364 94.448 60.8809C94.1201 60.9364 93.8468 60.7697 93.6282 60.603C94.0108 60.3807 94.612 60.1584 93.5189 60.214C93.3003 60.2696 93.1363 60.214 93.1363 60.1584C93.191 59.9917 93.027 59.9917 92.9723 60.214C92.863 60.6586 92.863 59.8806 92.7537 59.9362C92.6991 59.9362 92.6991 59.825 92.7537 59.7694ZM94.7213 68.7165C94.6666 68.6053 94.8852 68.3275 94.7759 68.3275C94.5573 68.2719 94.7759 68.6609 94.5573 68.6609C94.3934 68.7165 94.8853 69.0499 94.7213 68.7165ZM95.1585 69.0499C95.1585 68.9943 95.1585 68.9943 95.0492 68.9943C94.7759 69.1055 95.1039 69.2166 95.1585 69.0499ZM99.039 67.2716C99.1483 67.0493 99.1483 67.0493 98.9297 67.2716C98.7111 67.4939 98.9843 67.7718 98.9297 67.5495C98.875 67.3828 99.039 67.4383 99.039 67.2716ZM111.828 69.6056C111.5 69.7168 111.828 69.8279 111.883 69.6612C111.937 69.6056 111.883 69.6056 111.828 69.6056ZM111.118 70.3836C110.844 70.3836 111.227 70.6615 111.227 70.4392C111.227 70.4392 111.172 70.3836 111.118 70.3836ZM110.298 71.0505C110.407 71.2172 110.189 71.1061 110.189 71.2728C110.189 71.3839 110.353 71.2172 110.407 71.3283C110.516 71.4951 110.571 71.2728 110.735 71.2172C110.954 71.1616 110.516 71.2172 110.516 71.1061C110.516 70.9949 110.571 70.9949 110.626 71.0505C110.79 71.1061 110.571 70.5503 110.516 70.5503C110.462 70.5503 110.462 70.2725 110.353 70.2725C110.298 70.2725 110.298 70.3281 110.298 70.3836C110.298 70.5503 110.134 70.7726 110.298 71.0505ZM117.294 60.214C117.13 59.8806 116.911 60.6586 117.512 60.3807C117.512 60.3252 117.567 60.3252 117.622 60.3252C117.622 60.3807 117.676 60.2696 117.622 60.214C117.567 59.8806 117.403 60.603 117.294 60.214ZM116.201 60.2696C116.037 60.3252 116.419 60.3807 116.365 60.3252C116.365 60.2696 116.255 60.2696 116.201 60.2696ZM114.834 58.2134C114.67 58.269 114.889 58.5469 114.889 58.3246C114.889 58.269 114.834 58.2134 114.834 58.2134ZM112.211 57.7133C112.211 57.6022 111.828 57.7133 111.828 57.7133C111.883 57.8244 112.211 57.8244 112.211 57.7133ZM112.265 52.9341C112.156 53.0453 112.375 53.3231 112.375 53.0453C112.375 52.9897 112.32 52.9341 112.265 52.9341ZM110.844 54.4901C110.571 54.7124 110.844 54.768 110.954 54.5457C110.954 54.4346 110.954 54.4346 110.844 54.4901ZM99.6949 50.9336C99.7495 50.9336 99.7495 50.8224 99.6949 50.7668C99.6402 50.6001 99.6402 50.9891 99.6949 50.9336ZM102.646 56.1017C102.756 56.2129 102.756 56.2129 102.756 56.0461C102.756 55.8794 102.592 55.9906 102.646 56.1017ZM102.428 63.7706C102.264 64.0485 102.537 63.715 102.537 63.9929C102.482 64.2707 102.974 63.4927 102.974 63.5483C102.974 63.4372 103.138 63.6039 103.083 63.4372C103.029 63.2705 102.974 63.2705 102.865 63.4372C102.646 63.7706 102.592 63.5483 102.428 63.7706ZM101.99 64.3819C101.826 64.493 102.1 64.9932 102.045 64.7153C102.045 64.6597 102.1 64.6042 102.154 64.6042C102.318 64.5486 102.482 64.2707 102.537 64.104C102.482 64.1596 102.045 64.6042 102.209 64.3263C102.264 64.104 102.1 64.1596 101.99 64.3819ZM101.334 60.3807C101.389 60.214 101.225 60.2696 101.225 60.3807C101.225 60.4919 101.28 60.4363 101.334 60.3807ZM98.3831 57.4354C98.2192 57.491 98.6564 57.5466 98.6018 57.491C98.5471 57.4354 98.4925 57.4354 98.3831 57.4354ZM97.5633 60.5474C97.7819 60.3807 96.8528 60.4363 96.9621 60.5474C96.9621 60.6586 97.3994 60.6586 97.5633 60.5474ZM97.1807 57.88C97.0714 57.88 96.9621 57.88 96.8528 57.88C96.6342 57.9356 97.3994 57.9356 97.1807 57.88ZM96.9075 57.2687C96.8528 57.1576 96.5795 57.102 96.6342 57.2687C96.6342 57.3243 96.9621 57.4354 96.9075 57.2687ZM93.9561 58.2134C93.5735 58.269 93.9561 58.269 93.9561 58.3802C93.8468 58.5469 94.284 58.4913 94.5027 58.3246C94.8852 58.0467 94.448 57.9356 94.3934 58.2134C94.3934 58.3246 94.3934 58.3246 94.284 58.1579C94.1747 58.0467 94.1747 58.0467 94.1747 58.1023C94.2294 58.1579 94.1747 58.2134 93.9561 58.2134ZM93.6828 59.9362C93.7375 59.6027 93.1363 60.1029 93.5189 60.0473C93.5735 60.0473 93.6828 59.9917 93.6828 59.9362ZM111.336 51.0447C111.336 51.1558 111.118 51.1558 111.172 51.0447C111.227 50.9336 111.336 50.9336 111.336 51.0447ZM115.271 58.4913C115.435 58.4913 115.162 58.8247 115.162 58.6024C115.162 58.5469 115.217 58.4913 115.271 58.4913ZM115.217 58.3246C115.162 58.3246 115.162 58.269 115.162 58.1579C115.271 57.8244 115.326 58.2134 115.217 58.3246Z" fill="black"/>
<path d="M88.772 70.2724C88.9907 70.2724 88.772 70.4947 88.8813 70.6614C89.0453 70.9393 88.772 71.2727 88.772 70.9948C88.772 70.8281 88.3348 69.3277 88.5534 69.3833C88.6627 69.3277 88.4988 70.2724 88.772 70.2724ZM82.0495 68.7164C81.9402 68.383 82.1588 68.4385 82.0495 68.1607C81.9402 68.0495 82.1042 67.5494 82.1042 67.8828C82.1042 67.994 82.2681 69.6055 82.0495 68.7164ZM61.6633 95.9465C61.1168 95.3908 60.4063 93.6681 59.6958 93.4458C59.3679 93.0568 58.712 91.7786 58.4934 91.2785C58.4387 91.1673 58.2748 91.1673 58.1654 90.8339C58.0015 90.4449 57.8922 90.5561 57.8375 90.2782C57.8922 90.1115 57.4003 89.1668 57.5643 89.0556C57.6189 89.0556 57.6189 89.0556 57.5096 89.0556C57.3456 89.0001 57.2363 88.7222 57.3456 88.6666C57.4003 88.6111 57.4003 88.2776 57.3456 87.9442C57.3456 87.833 56.963 87.444 56.8537 87.4996C56.8537 87.5552 56.9084 87.444 56.963 87.3329C57.1817 87.055 56.963 87.3329 56.9084 87.1662C56.9084 87.055 56.6898 87.2218 56.7991 86.9995C56.8537 86.7772 56.4712 86.9995 56.6898 86.7772C56.7991 86.666 56.7444 86.6105 56.5258 86.6105C56.4712 86.3882 56.2525 85.888 56.0339 84.9989C55.9246 84.8877 55.9793 82.776 55.87 82.6093C55.6513 82.9427 55.7606 82.8316 55.706 82.2203C55.706 81.4979 55.706 81.4979 55.8153 81.609C55.9246 81.7757 55.9793 81.7202 55.9793 80.7199C55.9793 79.6084 55.9793 79.3306 55.9793 79.0527L55.9246 78.886C55.7606 79.4973 55.7606 78.7749 55.87 78.4414C55.9246 77.6634 56.0339 78.886 56.0339 78.2192C56.0886 77.8302 55.7606 77.6079 56.0339 77.3856C56.0886 77.3856 56.1432 77.33 56.1432 77.1633C56.1432 76.9966 56.1432 76.941 56.0339 77.0521C55.9246 77.33 55.87 76.8854 55.9246 75.7184C56.0339 74.0513 55.9793 73.6623 56.2525 73.2177C56.1979 73.3288 56.1979 73.5511 56.2525 73.6623C56.3618 74.1624 56.4165 71.7173 56.5805 72.662C56.6351 73.5511 56.963 70.717 57.127 70.9393C57.3456 70.717 57.0177 69.939 57.3456 69.939C57.4003 69.939 57.4003 69.939 57.4003 69.8278C57.8922 68.383 58.6573 66.827 59.2585 65.3821C59.5865 64.882 59.9144 64.3262 60.2423 63.9928C60.1877 63.8261 61.1168 62.7702 61.2808 62.4368C61.2808 62.3812 61.3901 62.3257 61.4994 62.3812C61.4447 62.548 62.3739 61.4921 62.5925 61.6032C62.7564 61.6032 62.5925 61.2698 62.7564 61.2698C62.8111 61.2698 62.8111 61.3254 62.8111 61.3809C62.7564 61.5477 63.0844 61.3809 62.8111 61.2142C62.5925 60.9919 63.0844 61.2142 63.0844 61.1031C63.0297 60.9919 63.303 60.9364 63.303 60.8252C63.303 60.7141 63.3576 60.6585 63.4123 60.6029C63.5216 60.6029 63.5216 60.6029 63.4669 60.7697C63.2483 61.2142 63.7949 60.3251 63.6309 60.8808C63.6856 61.0475 63.9042 60.4918 63.7402 60.6029C63.4669 60.6029 63.7402 60.3251 63.9042 60.6029C63.9588 60.7141 64.0135 60.7697 64.0135 60.7141C64.0681 60.1584 64.0681 60.4362 63.9042 60.4362C63.7949 60.3251 64.1228 60.0472 64.2321 60.1028C64.2321 60.1584 64.2868 60.0472 64.3414 59.9917C64.2868 59.8249 64.724 59.7138 64.5054 59.6027C64.3414 59.4359 64.7787 59.6582 64.888 59.4359C65.1066 59.1025 64.8333 59.4915 65.0519 59.3804C65.0519 59.3248 65.1066 59.2692 65.0519 59.2137C64.9973 58.9914 65.4345 59.1581 65.3252 58.9914C65.2706 58.8802 65.8718 58.7135 65.7624 58.6024C65.7078 58.5468 65.7078 58.5468 65.7624 58.5468C65.8171 58.6579 66.5276 58.3245 66.5276 58.2134C68.2766 56.9352 70.9 57.3242 73.1408 56.7129C73.5781 55.6015 77.9504 55.8794 79.0435 56.1572C79.4808 56.2684 79.6447 56.3795 79.5901 56.4351C79.4808 56.4906 79.4808 56.4906 79.5901 56.4906C79.8087 56.6018 80.3552 57.0464 80.6285 56.8796C80.6285 56.8796 80.5738 56.8241 80.5192 56.8241C80.3006 56.8241 80.5192 56.6574 80.6832 56.7685C80.8471 56.9908 81.339 56.8241 81.3937 57.0464C81.339 57.1019 81.339 57.1019 81.4483 57.0464C81.503 56.8796 81.7762 57.2686 81.7216 57.1019V57.0464C81.8309 57.0464 82.1042 57.2686 82.0495 57.3242C82.2135 57.4909 82.9786 58.0466 83.1973 58.1578C83.6345 58.2689 85.0555 59.9361 85.0009 60.4362C85.0009 60.5474 85.1648 60.3251 85.1648 60.4918C85.1102 60.6029 85.4381 60.4362 85.3288 60.4918C85.2741 60.6585 85.8207 61.2142 85.6021 61.3254C85.4928 61.4365 85.4928 61.4365 85.6021 61.3809C85.8207 61.2698 85.766 61.7144 85.8207 61.7144C85.93 61.7144 85.93 61.8811 85.8753 62.2145C85.8753 62.2145 85.8207 62.2701 85.766 62.2145C85.7114 62.159 85.7114 62.2145 85.6567 62.2701C85.93 62.8814 86.094 60.8808 86.5312 63.0481C86.8591 63.2148 86.7498 63.6594 86.9684 63.9928C87.0777 64.1595 87.0777 64.104 87.0777 63.8817C87.1324 63.5482 86.8591 63.4927 86.9138 63.2148C86.9684 63.0481 87.0231 63.1037 87.187 63.5482C87.4603 63.8817 87.351 64.1595 87.4057 64.3818C87.5696 64.3818 87.2964 64.9375 87.4603 64.9375C87.5696 64.9375 87.5696 64.9375 87.4603 64.9931C87.351 65.0487 87.4603 65.271 87.515 65.3821C87.515 65.271 87.4603 64.882 87.6789 65.3265C87.7336 66.827 88.6081 70.6058 88.6627 71.9951C88.7174 71.9951 88.7174 71.884 88.7174 71.7173C88.7174 71.2171 88.8813 71.106 88.936 71.5506C89.0453 71.8284 89.0453 71.8284 89.1 71.6617C89.1546 71.6061 89.1546 72.0507 89.1546 72.7731C89.2093 74.4959 88.936 73.7179 88.8813 75.0516C88.8813 76.2741 88.7174 75.1627 88.6081 76.552C88.5534 77.4412 88.2255 78.2747 88.1708 79.0527C88.0069 79.7752 87.9522 79.9974 88.0615 80.1086C88.1162 80.1086 88.1162 80.2197 88.0069 80.3864C87.7883 80.6643 88.0069 80.5532 87.8976 80.7199C87.7882 80.831 87.7882 80.8866 87.8976 80.8866C87.9522 80.831 88.0069 81.1645 87.8976 81.1089C87.7882 81.0533 87.6789 81.3867 87.6789 81.7757C87.6789 81.9425 87.4057 82.1647 87.6243 82.1647C87.6789 82.1092 87.7336 82.1647 87.7336 82.2203C87.7883 82.2759 87.7883 82.2759 87.7336 82.2759C87.6243 82.1647 87.4603 82.3315 87.4603 82.5537C87.4603 82.6093 87.4603 82.6649 87.4057 82.6649C87.2964 82.6093 87.351 83.3873 87.2417 83.3317C87.187 83.3317 87.187 83.3873 87.187 83.4429C87.187 83.554 87.4603 83.3317 87.351 83.6096C87.351 83.7763 87.2964 83.7763 87.2417 83.7207C87.1324 83.4985 87.187 83.9986 87.0777 83.9986C86.9684 84.1653 87.1324 84.2209 87.0231 84.4432C86.8591 84.8322 87.187 84.5543 87.2964 84.4987C87.515 84.332 86.9138 85.5546 86.9138 85.4435C86.8045 85.3879 87.2417 84.9433 86.9684 84.9433C86.8045 84.8878 86.7498 85.5546 86.6952 85.5546C86.6405 85.5546 86.5858 85.6658 86.4765 85.7213C86.4219 85.888 86.4219 85.888 86.5312 85.888C86.6405 85.8325 86.5858 85.9436 86.4219 86.277C86.2033 86.7216 86.3126 86.7216 86.1486 87.055C85.93 87.4996 86.1486 86.7772 85.93 86.7216C85.8753 86.9439 85.6567 87.2773 85.8207 87.6108C85.5474 87.2218 84.9462 88.1109 85.0009 88.4443C85.0009 88.5555 84.7823 88.6666 84.8916 88.7778C84.8916 88.8333 84.8916 88.8333 84.8369 88.8333C84.6729 88.8333 84.7822 89.2223 84.6729 89.1668C84.4543 89.2223 84.6729 89.5002 84.509 89.5558C84.345 89.6113 84.345 89.6669 84.5636 89.6113C85.0009 89.3891 83.9624 90.8895 83.9078 90.9451C83.7438 90.9451 83.9078 91.1118 83.7985 91.1673C83.7438 91.1673 83.6892 91.1673 83.7438 91.2229C83.7985 91.2785 83.5252 91.6675 83.5252 91.5563C83.4705 91.4452 83.7985 91.2229 83.6345 91.2229C83.4705 91.2229 83.1973 92.0009 83.1973 91.5008C83.2519 91.3896 83.1973 91.3341 83.1426 91.3341C83.0333 91.4452 83.1973 91.8898 83.0333 92.0565C82.8693 92.3899 82.8693 92.4455 83.088 92.2232C83.2519 92.1676 82.1588 93.3902 82.1588 93.2791C82.0495 93.2791 82.0495 93.2235 82.1042 93.1679C82.1588 93.0012 81.8309 93.3346 81.8856 93.3902C81.9402 93.5014 81.4483 94.0571 81.339 93.9459C81.2844 93.8904 81.0657 94.1126 81.1204 94.2238C81.175 94.2794 81.175 94.2238 81.1204 94.2238C81.1204 94.1126 80.4645 94.5016 80.5192 94.4461C80.5738 94.3349 80.5192 94.3349 80.4099 94.4461C80.0819 94.7239 80.0273 94.7239 80.1366 94.5016C80.4099 94.2238 80.0273 94.0571 80.1366 94.3349C79.8087 94.5572 79.8633 95.1685 79.5901 95.5019C79.3714 95.6686 79.5354 96.2244 79.2075 96.0021C79.1528 95.9465 79.1528 95.9465 79.2075 95.9465C79.6447 96.0021 79.0982 95.7242 79.0435 96.1132C78.7156 96.6689 78.169 97.0024 77.6771 97.2802C77.6225 97.3914 77.1306 97.8359 76.912 97.7804C76.8573 97.7248 76.748 97.7804 76.5841 97.8915C76.2015 98.1694 75.6549 98.5584 75.5456 98.2249C75.6003 98.0582 75.2177 98.3917 75.2177 98.2249C75.163 98.1694 75.163 98.2249 75.163 98.2805C75.163 98.3917 75.5456 98.2805 75.4363 98.3917C75.3817 98.5028 75.6003 98.5584 75.4363 98.5584C75.2723 98.5584 75.327 98.6695 74.9991 98.6139C74.5618 98.4472 74.7805 99.0585 74.6165 98.7807C74.5072 98.5028 74.5618 98.9474 74.4525 98.9474C74.3979 98.9474 74.3432 98.8918 74.3432 98.8362C74.4525 98.6695 72.157 98.9474 73.4687 98.7251C71.4465 98.8362 67.3474 98.5028 65.8171 97.9471C65.1612 97.7804 64.3414 97.5581 63.6309 97.0579C62.9751 96.6134 62.5925 96.6689 62.3739 96.1132C62.4285 96.0576 62.1552 95.8354 62.2645 96.0577C62.3739 96.2244 61.7727 95.8909 61.6633 95.9465ZM88.8813 71.7173C88.8267 71.5506 88.8267 71.9951 88.8813 71.884C88.936 71.884 88.936 71.7728 88.8813 71.7173ZM88.772 72.8287C88.7174 73.3289 88.9907 72.7731 88.9907 72.662C88.9907 72.3841 88.772 72.5508 88.772 72.8287ZM88.5534 72.1618C88.4441 71.9951 88.4441 72.4397 88.5534 72.3286C88.5534 72.3286 88.5534 72.2174 88.5534 72.1618ZM86.1486 62.159C85.9847 61.9922 85.9846 62.6035 86.2033 62.3812C86.2033 62.3257 86.1486 62.2701 86.1486 62.159ZM85.766 61.8811C85.8753 61.6032 85.3288 61.8811 85.4928 61.9367C85.5474 61.9922 85.6021 62.0478 85.5474 62.1034C85.5474 62.2145 85.8207 61.9922 85.766 61.8811ZM85.3834 60.9364C85.3288 60.7697 85.2195 60.8808 85.2741 60.9919C85.3834 61.1587 85.4381 61.1031 85.3834 60.9364ZM83.3612 91.1673C83.4159 91.1118 83.3612 91.1118 83.3066 91.1118C82.9786 91.2229 83.3066 91.2785 83.3612 91.1673ZM83.1426 58.3801C83.088 58.4357 83.7985 59.1025 83.3612 58.6024C83.2519 58.4357 83.1426 58.3801 83.1426 58.3801ZM55.8153 82.387C55.7606 82.6093 55.9246 82.5537 55.9246 82.387C55.9246 82.2759 55.7606 82.2203 55.8153 82.387ZM56.3072 74.0513C56.3072 73.7179 56.0886 73.9957 56.1432 74.1624C56.2525 74.3847 56.3072 74.3291 56.3072 74.0513ZM56.1979 74.607C56.1432 74.218 56.1432 75.4406 56.1979 75.0516C56.2525 74.9404 56.2525 74.7181 56.1979 74.607ZM56.5258 78.2747C56.6351 78.108 56.3618 78.3859 56.4165 78.2192C56.4165 78.108 56.3619 78.1636 56.3072 78.2192C56.1432 78.5526 56.1432 82.5537 56.3072 82.2759C56.3619 82.1647 56.4165 82.2759 56.4165 82.4982C56.4165 83.165 56.5258 81.7757 56.4165 81.8313C56.3618 80.9977 56.4165 79.275 56.5258 78.2747ZM56.5805 73.2733C56.6898 72.8287 56.4712 72.9398 56.4712 73.3289C56.4712 73.6623 56.5258 73.6623 56.5805 73.2733ZM61.0075 77.6634C61.0075 77.6634 61.0075 77.5523 61.0075 77.4967C60.9528 77.33 60.9528 77.8857 61.0075 77.6634ZM61.0075 77.2189C61.0075 77.1633 61.0075 76.9966 61.0075 76.8854C60.9528 76.7187 60.9528 77.4412 61.0075 77.2189ZM74.4525 98.3917C74.4525 98.5028 74.6165 98.5028 74.6165 98.5028C74.6165 98.4472 74.4525 98.2805 74.4525 98.3917ZM74.8351 98.3917C74.3979 98.3917 75.1084 98.6139 75.163 98.4472C75.163 98.3917 74.9444 97.9471 74.9444 98.2805C74.9444 98.3917 74.9444 98.4472 74.8351 98.3917ZM75.3817 97.9471C75.6003 97.6137 75.163 97.9471 75.2723 98.0582C75.2723 98.0582 75.327 98.0027 75.3817 97.9471ZM77.8411 88.8333C77.8411 89.0001 78.2784 88.611 78.2237 88.611C78.169 88.5555 77.8411 88.7778 77.8411 88.8333ZM80.3006 94.1126C80.3006 94.1682 80.6285 93.9459 80.6285 93.8904C80.6285 93.7792 80.3006 94.1682 80.3006 94.1126ZM82.2135 80.8866C82.2681 80.8866 82.2681 80.7199 82.2681 80.5532C82.2681 80.3309 82.2681 80.3309 82.2135 80.4976C82.1042 80.831 82.1042 80.9977 82.2135 80.8866ZM80.4645 68.383C80.4099 68.1607 79.2621 69.8834 79.2075 69.7167C79.0982 69.4944 78.9342 69.7167 78.7702 70.1057C78.5516 70.5503 78.333 71.2171 78.0051 71.3283C77.9504 71.3838 78.0597 71.6061 77.8958 71.7173C77.7318 71.8284 77.7865 72.0507 77.6771 72.1063C77.5132 72.2174 77.5678 72.4953 77.3492 72.8287C77.0759 73.2177 76.9666 73.6623 77.2399 73.1621C77.3492 72.8287 77.6771 72.7176 77.6771 72.3286C77.6771 72.3286 77.7865 72.273 77.8958 72.2174C78.0051 72.1618 78.1144 72.1618 78.0597 72.1618C78.0051 72.3286 78.4423 72.3286 78.169 72.4397C78.1144 72.4953 78.1144 72.5508 78.1144 72.5508C78.2783 72.3286 77.6771 73.8846 77.2946 73.7734C76.912 73.7734 77.5132 73.9401 77.2399 74.0513C77.1306 74.1624 77.1306 74.1624 77.1853 74.0513C77.4039 73.7734 76.5841 74.1624 76.5841 74.2736C76.5294 74.6626 76.0375 75.1071 75.8735 75.4961C75.8189 75.9407 75.4363 76.163 75.4363 76.3853C75.491 76.552 75.1084 76.7743 75.163 76.941C75.1084 77.1077 74.8898 76.9966 74.8351 77.2744C74.7258 77.6079 74.3979 77.1077 74.6165 77.2189C74.7258 77.2744 74.7258 77.2189 74.6711 77.1633C74.5618 76.9966 74.3432 77.2189 74.5618 77.3856C74.6711 77.4967 74.6711 77.5523 74.5618 77.6079C74.3432 77.7746 73.906 78.497 73.906 78.7749C73.8513 78.9416 73.3594 79.4417 73.4687 79.5529C73.5781 79.5529 73.742 79.4417 73.6874 79.3306C73.6874 79.275 74.0153 79.3306 74.0153 79.2194C74.0699 79.1639 74.1246 79.2194 74.0699 79.275C74.0699 79.3306 74.0153 79.3862 73.9606 79.3862C73.7967 79.3306 73.9606 79.8863 73.8513 79.8863C73.5234 80.3309 73.0315 81.1645 72.5943 81.4979C72.5943 81.4979 72.5396 81.4979 72.5396 81.5535C72.5943 81.6646 72.3756 81.998 72.2117 81.998C72.0477 82.0536 72.2663 82.2203 72.0477 82.387C71.8838 82.4982 71.8291 82.5537 71.9384 82.6093C72.0477 82.7205 72.0477 82.7205 71.9384 82.7205C71.7198 82.6649 71.3919 83.4429 71.1732 83.6096C70.9 83.8875 71.1186 83.943 70.7907 84.1653C70.5174 84.3876 70.2988 84.6655 70.1895 84.8878C70.1895 84.9989 70.1348 85.0545 70.1348 84.9989C70.0802 84.9433 69.6429 85.3323 69.6429 85.4435C69.5336 85.7769 69.3696 85.3879 69.151 85.7213C68.9324 86.0548 69.2603 85.7213 69.3696 85.8325C69.479 85.888 69.2057 85.5546 69.3696 85.6658C69.5883 85.8325 69.151 85.9992 69.2057 86.1659C69.2603 86.277 68.8231 86.3326 69.0417 86.2215C69.0964 86.1659 69.0964 86.1103 69.0417 86.0548C68.9324 85.9992 68.7684 86.3882 68.6045 86.3326C68.4952 86.3326 68.4952 86.3882 68.6045 86.4993C68.7138 86.6105 68.7138 86.666 68.4952 86.666C68.3859 86.7216 67.9486 87.444 67.9486 87.5552C67.9486 87.8886 67.0742 88.7778 66.7462 89.2223C66.1997 90.0003 65.8171 90.3338 65.9264 89.9448C66.0904 89.5002 65.3799 90.0559 65.6531 89.9448C65.7078 89.8892 65.7624 89.9448 65.7078 90.0559C65.5985 90.2226 65.8171 90.0559 65.8171 90.1671C65.8171 90.2226 65.7624 90.2782 65.7078 90.2782C65.5438 90.8895 67.3474 91.6675 67.7847 91.8342C67.8393 91.8898 69.315 91.8342 69.315 92.0009C69.3696 92.1121 69.479 92.1676 69.6976 92.1676C70.2441 92.2232 70.2988 92.2232 70.1895 92.3343C70.736 92.1121 71.9384 92.6122 72.7036 92.3343C73.6874 92.0565 75.491 90.6116 76.3654 90.2226C76.2015 90.1671 77.2946 89.1112 77.0213 89.5558C76.9666 89.6113 77.0213 89.6669 77.0213 89.6113C77.1853 89.5002 77.0213 89.3891 77.2399 89.2779C77.4039 89.1668 77.3492 89.0001 77.8958 88.4999C78.4423 87.9998 78.8249 87.444 79.2075 87.2218C79.2075 87.5552 78.7156 87.7219 78.497 88.0553C78.1144 88.8889 79.754 86.9439 79.5901 86.8328C79.5901 86.666 79.5354 86.666 79.4808 86.666C79.3714 86.7216 79.9726 86.1103 79.918 86.1659C79.918 86.1659 79.6447 86.7216 79.6994 86.7772C79.8633 86.7772 80.1913 85.6658 80.3006 85.6658C80.5192 85.6658 80.0819 85.499 80.2459 85.499C80.3552 85.499 80.7925 84.8878 80.8471 84.6655C81.339 83.6652 81.9949 82.2203 82.1042 81.22C82.1588 81.22 82.1588 81.1645 82.1042 81.0533C81.9949 80.8866 82.0495 80.7754 82.2135 80.053C82.3774 79.3862 82.4868 80.2197 82.4321 79.4417C82.4321 79.2194 82.4321 79.0527 82.4868 79.1083C82.5414 79.2194 82.6507 78.7193 82.5961 78.4414C83.0333 75.9963 83.3612 70.717 82.3774 68.3274C82.3228 68.3274 82.1042 66.9381 81.9402 67.2715C81.8856 67.3271 81.8856 67.2715 81.8856 67.2715C81.8309 66.1601 80.7925 68.9943 80.4645 68.383ZM66.2543 89.0556C66.2543 89.1112 66.2543 89.1112 66.145 89.0556C65.7624 89.0001 66.0357 89.7225 66.3636 89.0556C66.6916 88.5555 66.145 88.8889 66.2543 89.0556ZM66.7462 88.3332C66.8555 88.0553 66.309 88.5555 66.5823 88.4999C66.6369 88.4999 66.6916 88.3888 66.7462 88.3332ZM69.4243 84.9433C69.479 84.9989 69.4243 85.0545 69.315 85.11C68.9871 85.2768 69.5336 85.11 69.479 85.3323C69.479 85.5546 69.8069 85.1656 69.9162 84.8322C70.1348 84.3876 69.2603 84.8322 69.4243 84.9433ZM70.0802 84.3876C70.0802 84.5543 70.2441 84.4988 70.2441 84.332C70.2988 83.8875 69.8069 84.4432 69.9708 84.3876C70.0255 84.332 70.0802 84.3876 70.0802 84.3876ZM74.8898 76.4964C74.8351 76.3853 74.6711 76.7187 74.7258 76.7187C74.7258 76.8854 74.8898 76.4964 74.8898 76.4964ZM77.0213 73.6623C76.9666 73.5511 76.9666 74.0513 77.0213 73.8846C77.0759 73.829 77.0759 73.7179 77.0213 73.6623ZM78.333 70.2168C78.2783 70.328 78.5516 70.2724 78.5516 70.2724C78.5516 70.2168 78.3877 70.1613 78.333 70.2168ZM78.6063 69.939C78.5516 70.2168 78.6609 70.1057 78.8249 69.7167C78.9889 69.2721 78.6063 69.8278 78.6063 69.939ZM72.485 60.2695C71.9384 60.2695 71.9384 60.2695 72.2663 60.4362C72.6489 60.5474 72.321 60.8808 72.5943 60.9364C72.7582 60.9364 72.6489 60.7697 72.8129 60.7141C72.8129 60.7141 72.8675 60.8252 72.8129 60.8808C72.7036 61.2142 73.0862 60.6585 72.9769 60.6029C73.0315 60.5474 72.4303 60.3807 72.7036 60.3807C72.8129 60.3807 72.8675 60.3807 72.8675 60.3251C72.8675 60.2695 72.7036 60.2695 72.485 60.2695ZM69.0964 60.9364C69.151 60.8252 68.8778 60.8252 68.9324 60.9364C68.9871 61.0475 68.9871 61.0475 69.0964 60.9364ZM68.5498 61.2698C68.6045 61.1587 68.1672 61.3809 68.4405 61.3809C68.4952 61.3809 68.5498 61.3254 68.5498 61.2698ZM64.3961 60.2695C64.2321 60.0472 64.0135 60.7141 64.2868 60.4918C64.3414 60.4362 64.3961 60.3251 64.3961 60.2695ZM61.7727 74.7181C61.718 74.5514 61.718 74.996 61.7727 74.8849C61.8273 74.8849 61.8273 74.8293 61.7727 74.7181ZM61.4994 76.8299C61.4994 76.9966 61.4447 77.9969 61.554 77.9969C61.718 78.886 61.6633 81.22 61.7727 81.9425C61.8273 81.4979 61.9913 81.3867 61.9913 81.7757C62.1006 82.8872 61.4447 83.1095 61.882 84.1653C62.1552 85.0545 62.1552 84.332 62.4832 84.4432C62.4832 84.5543 63.0844 84.1097 62.9204 84.1097C62.8111 84.1653 63.2483 83.8319 63.2483 83.943C63.5763 83.8875 63.9588 83.3317 64.1228 83.1095C64.1228 83.1095 65.9811 81.1645 65.8718 81.22C65.2159 81.7757 65.5985 81.3312 65.8171 80.9977C66.0357 80.7199 66.1997 80.8866 66.3636 80.7755C66.4183 80.7199 66.3636 80.7199 66.309 80.7755C66.0904 80.831 66.2543 80.5532 66.473 80.3864C66.5823 80.3309 66.6916 80.2753 66.6369 80.3309C66.6916 80.4976 67.1288 80.053 67.0742 79.8863C67.0742 79.8863 67.2928 79.664 67.1835 79.7752C67.1288 80.053 67.4021 79.664 67.6207 79.4417C68.1126 78.7193 69.2057 77.8302 69.5883 77.0521C69.8615 76.941 70.6267 76.0519 70.736 75.7184C70.8453 75.6073 71.9931 74.218 71.9931 74.0513C71.9384 74.0513 71.3372 74.7737 71.2279 74.8849C71.5558 74.3847 71.8838 74.0513 72.2663 73.6623C72.3756 73.4956 72.4303 73.44 72.321 73.4956C72.2117 73.6067 72.157 73.6067 72.2117 73.4956C72.2663 73.44 72.4303 73.2733 72.5943 73.1621C72.7582 73.051 72.8675 72.9954 72.8129 73.1066C72.7582 73.1621 72.8129 73.1621 72.9222 73.1066C73.1408 72.8843 72.9222 72.8287 73.2501 72.5508C73.5234 72.2174 74.1246 71.2727 74.0153 71.3283C73.8513 71.4394 74.0699 71.106 74.2339 70.9393C74.5618 70.6614 74.0699 71.2171 74.3979 70.9393C74.6165 70.7726 74.4525 70.5503 74.7258 70.328C74.9444 70.2168 74.9444 69.939 75.0537 69.9946C75.1084 70.0501 75.7096 69.2165 75.7096 69.0498C75.6003 68.9943 76.0375 68.4941 75.9282 68.8275C75.8189 69.0498 75.8189 69.1054 76.3654 68.383C76.8027 67.9384 77.1306 67.2715 77.4585 67.1604C77.3492 67.7161 77.9504 66.4935 78.0051 66.3824C77.9504 65.8267 78.2237 66.5491 78.169 66.2157C78.0597 65.9934 79.6994 64.493 79.8087 64.7708C79.9726 64.8264 80.1366 64.2707 80.3006 64.3262C79.918 61.7144 75.9282 62.1034 73.6874 61.77C72.485 61.7144 72.2117 61.5477 71.6651 60.7141C71.6651 60.5474 71.3919 60.6029 71.4465 60.4918C71.5012 60.3251 71.2826 60.3807 71.2826 60.4918C71.1186 60.8252 70.3534 60.6585 70.2441 60.9364C70.0802 61.1587 69.9162 60.9364 69.7522 61.1587C69.6429 61.3254 69.5336 61.1587 69.479 61.2698C66.8009 63.4927 64.0682 66.827 63.139 70.2168C62.8657 71.3283 62.8111 71.495 62.7564 71.2727C62.7018 71.106 62.7018 71.1616 62.7018 71.495C62.7018 72.3286 62.4832 71.2727 62.5378 72.1063C62.7018 72.9954 62.3192 71.884 62.3739 72.273C62.3739 72.3841 62.6471 73.1621 62.3739 72.7731C62.0459 72.4397 62.4832 72.9954 62.2099 73.1066C62.0459 73.3844 62.3739 72.9954 62.3192 73.44C62.3192 73.9957 62.2099 73.2177 62.1006 73.829C61.9913 74.2736 62.3192 74.1624 62.1552 74.3291C61.9913 74.3291 62.1552 75.4406 61.882 75.385C61.718 75.4406 61.6633 76.0519 61.6087 77.3856V77.8857C61.554 77.6079 61.4994 77.1077 61.4994 76.8299ZM61.882 82.6093C61.7727 82.2203 61.718 82.6649 61.8273 82.7205C61.882 82.7205 61.882 82.6649 61.882 82.6093Z" fill="black"/>
<path d="M47.2418 86.1103C47.1325 86.5549 46.9139 88.6666 47.0232 87.3329C47.0778 86.7216 46.586 86.4994 46.8592 86.0548C46.9685 85.9992 46.8046 86.6661 46.9685 86.6661C47.1325 86.7772 47.0232 86.4438 47.0778 86.2771C47.0778 85.6102 47.2965 85.8881 47.2418 86.1103ZM52.1607 94.8351C52.2154 95.0018 52.3247 94.8351 52.434 94.9462C52.434 95.0018 52.434 95.0574 52.3793 95.0574C52.2154 95.0574 52.4886 95.3352 52.27 95.1685C51.7235 94.724 52.434 95.502 52.3247 95.5575C52.3247 95.6131 52.27 95.5575 52.27 95.502C52.27 95.3352 52.0514 95.6131 52.1607 95.3908C52.27 95.2241 51.9421 95.4464 51.9968 95.5575C51.8874 95.9465 51.8874 96.1132 51.5595 96.4467C51.3956 96.669 51.3409 96.7801 51.4502 96.8357C51.5049 96.8912 51.4502 96.9468 51.3409 97.0024C51.1769 97.058 51.1223 97.058 51.1769 97.0024C51.3956 96.669 49.9199 97.5025 50.4118 97.1135C50.6304 97.0024 50.685 96.6134 50.5211 96.6134C50.4118 96.9468 50.4664 96.9468 49.6466 97.3914C49.3187 97.447 49.3187 97.2802 48.7175 97.5025C47.7337 97.7248 47.7337 97.836 46.8046 97.9471C45.5475 97.9471 45.7115 98.1138 45.2742 98.225C45.0556 98.225 45.2742 98.0583 44.837 98.1694C44.2905 98.2805 43.4706 98.3361 43.5253 98.225C43.3613 98.3361 40.8472 98.225 40.5193 98.225C40.4646 98.1138 38.4424 98.2805 39.2622 98.0583C39.4809 98.0027 39.4809 98.0027 39.0983 98.0027C38.8797 98.0027 38.7703 98.0027 38.825 98.0583C39.2622 98.1694 38.4424 98.3361 38.4424 98.225C38.4424 98.225 38.1691 98.1694 37.8959 98.1694C37.5133 98.225 37.24 97.9471 37.1854 98.0583C37.24 98.1138 36.5295 98.0583 36.6935 97.9471C36.7481 97.9471 36.6935 97.8915 36.5295 97.8915C36.1469 97.7804 36.4202 98.0027 36.2016 97.9471C36.0376 97.8915 35.4364 97.7804 35.2724 97.7248C35.1631 97.6137 34.6712 97.6692 34.6166 97.5025C34.6712 97.5025 34.5619 97.5025 34.4526 97.5025C34.3433 97.5581 34.234 97.5025 34.234 97.447C34.234 97.3914 34.2887 97.3358 34.3433 97.3358C34.4526 97.2802 33.8514 96.7801 33.7968 97.058C33.7421 97.1691 33.6875 97.1691 33.7421 97.1135C33.7968 97.0024 33.5782 97.058 33.5782 97.1691C33.5782 97.2802 33.4142 97.2802 33.1956 97.1691C32.9223 97.1135 33.0863 96.669 32.8676 96.6134C32.7037 96.5022 32.7037 96.5022 32.8676 96.4467C33.0316 96.3911 33.0316 96.3911 32.9223 96.3911C32.7037 96.3911 32.8676 96.2244 32.7037 96.1132C32.3211 95.9465 33.1956 95.8354 32.5397 95.502C32.1571 95.3352 32.7583 95.502 32.7583 95.2797C32.7583 95.1685 32.3211 95.2797 32.4851 95.113C32.5944 95.0018 32.4851 94.6684 32.7037 94.724C33.0863 94.7795 32.649 94.2794 32.813 94.1682C32.9223 94.1127 32.9223 94.0571 32.7583 94.0571C32.5397 94.0571 32.5397 94.0571 32.7037 94.0015C32.813 93.946 32.813 93.8904 32.7583 93.8904C32.7037 93.8348 32.7037 93.7792 32.7583 93.6681C32.8676 93.5014 32.7583 93.3347 32.9223 93.1679C33.0863 92.9457 33.7421 93.2791 33.9607 93.1124C34.07 93.0568 35.819 92.6678 34.6712 92.7234C34.4526 92.7234 34.2887 92.7234 34.2887 92.7234C32.2118 92.8901 36.9667 92.0009 37.6226 92.2232C40.7926 92.1677 40.3553 93.2235 40.3553 89.1668C40.1367 89.6114 40.4646 86.3882 40.4646 86.1659C40.4646 86.1103 40.4646 86.0548 40.5193 86.0548C40.6286 86.0548 40.6286 85.7769 40.7926 85.6102C41.0658 85.2768 40.7379 85.4991 40.7379 85.3323C40.7379 84.8878 40.5193 85.6658 40.41 85.6102C40.3553 85.5546 40.3553 85.6102 40.41 85.6658C40.5739 85.9436 40.3553 85.6658 40.246 85.8881C40.0821 86.2215 40.3007 85.1656 40.3553 85.2212C40.4646 85.1656 40.4646 84.8878 40.3007 84.8322C40.5739 84.2209 40.5193 83.9431 40.5739 82.8316C40.7926 80.8866 40.5739 79.8863 40.8472 78.886C40.9019 78.9972 40.9019 78.886 40.9565 78.7193C41.0112 78.3303 40.8472 78.3303 40.8472 77.9413C40.8472 77.33 41.1205 78.6082 41.1205 77.0522C41.1205 76.4409 41.1205 76.3853 40.9565 76.3297C40.8472 76.2742 40.8472 76.2742 41.0112 76.2742C41.1751 76.2742 41.2298 76.2186 41.2298 75.8852C41.2298 75.6629 41.1751 75.5517 41.1205 75.6073C41.0112 75.6073 41.0658 75.6073 41.1205 75.4962C41.2845 75.385 41.3391 74.9404 41.2298 74.9404C41.1205 74.9404 41.0658 74.5514 41.2298 74.7182C41.2845 74.8849 41.3938 73.9402 41.3391 73.6067C41.2298 73.2177 41.5577 73.7179 41.4484 73.1066C41.3391 72.4397 41.6124 72.8843 41.5577 72.4397C41.5577 72.1063 41.2845 72.3286 41.4484 72.1619C41.6124 72.0507 41.5031 71.6617 41.667 71.5506C41.831 71.4394 41.831 71.106 41.667 71.1616C41.6124 71.2171 41.6124 71.106 41.667 70.8837C41.667 70.717 41.667 70.5503 41.667 70.5503C41.6124 70.4947 41.667 70.4947 41.7217 70.5503C41.831 70.5503 41.667 70.9393 41.831 70.9393C41.8857 70.9393 41.8857 70.8837 41.8857 70.7726C42.1589 70.3836 42.0496 72.9954 42.2136 70.8837C42.2682 70.0501 42.1589 70.4391 42.1043 69.8834C42.1043 69.55 41.995 69.55 41.8857 69.4389C41.995 69.2721 42.2136 69.3833 42.1589 69.1054C42.1589 68.8831 42.1589 68.8831 42.1043 69.0499C41.3391 70.2724 42.0496 65.8823 42.1589 65.8823C42.2136 65.5488 41.995 65.7711 41.8857 65.66C42.0496 65.4377 42.3775 65.1598 42.3229 64.7153C42.2136 64.2151 42.4869 64.9376 42.4322 64.4374C42.3775 64.3818 42.8148 64.3818 42.6508 64.3263C42.4322 63.9373 42.9787 61.9923 42.4869 62.937C42.1589 63.326 41.6124 64.104 41.2298 64.4374C40.5193 65.1043 38.7703 66.6603 38.2238 67.3827C38.2785 67.4383 38.0052 67.6606 37.9505 67.605C37.9505 67.7717 37.0214 68.7164 36.7481 68.9387C36.3655 69.2721 36.2562 69.3277 36.3655 69.1054C36.3109 69.1054 35.1631 70.4947 34.8352 70.6614C34.1794 70.9949 34.398 70.8281 34.4526 70.5503C34.398 70.4391 34.7259 70.1613 34.6712 70.1057C34.5073 69.7723 33.6328 70.3836 34.0154 70.2724C34.398 70.1057 33.7968 70.6059 33.7968 70.7726C33.6328 71.1616 33.8514 70.5503 33.6328 70.5503C33.3595 70.328 33.5235 70.717 33.3595 70.717C33.3049 70.6059 33.0863 71.0504 33.0863 70.8837C33.0863 70.7726 33.0863 70.7726 32.977 70.8281C32.813 70.9949 32.4851 70.6059 32.4304 70.8837C32.3758 71.106 32.3211 70.8837 32.2118 71.106C32.1025 71.2171 32.0478 71.2171 31.8839 70.9393C31.7199 70.717 31.8839 70.4391 31.6652 70.5503C31.228 70.6059 32.0478 69.939 31.5013 69.9946C31.3373 69.9946 31.2827 69.9946 31.3373 69.7167C31.2827 69.4389 31.7746 68.9387 31.3373 69.2721C31.228 69.3833 31.1187 69.4389 31.0094 69.4389C30.9001 69.55 30.6268 69.8834 30.4628 69.6056C30.4082 69.4389 31.1734 69.161 30.5722 69.2166C30.0803 69.3833 31.0094 68.8831 30.4628 68.9943C30.2989 68.9943 30.5722 68.8276 30.5722 68.8276C30.6815 68.8276 30.6815 68.8276 30.6815 68.7164C30.6268 68.6053 30.9001 68.7164 30.9001 68.5497C30.9001 68.4941 30.9001 68.4386 30.8454 68.4941C30.7908 68.5497 30.7908 68.4941 30.9001 68.3274C31.064 68.1051 31.1187 67.8828 30.9001 67.994C30.7908 68.0496 30.9547 68.1607 30.7908 68.2718C30.6815 68.383 30.6815 68.383 30.7361 68.2163C30.7908 68.0496 30.7908 68.0496 30.6268 68.1607C30.5175 68.2718 30.4628 68.2718 30.5175 68.2163C30.5722 68.1607 30.5175 68.0496 30.4628 67.994C30.3535 67.8828 30.3535 67.8273 30.4628 67.605C30.7361 67.3271 30.5722 67.2716 30.9547 66.9937C31.3373 66.7714 31.1187 66.7158 31.2827 66.4936C31.3373 66.3824 31.3373 66.3268 31.228 66.3268C31.1734 66.2713 31.1187 66.3268 31.1187 66.3824C31.228 66.4936 30.9547 66.6047 30.9001 66.4936C30.7361 66.4936 31.9932 65.4377 31.6652 65.7711C31.4466 66.049 31.4466 66.1046 31.5559 65.9934C31.7199 65.8823 31.8839 65.9934 31.8292 65.9378C31.8292 65.7711 32.1571 65.3821 32.2664 65.3266C32.2118 64.6597 32.4851 64.882 32.813 64.3818C32.9223 64.0484 33.9061 63.326 34.07 63.0481C34.234 62.8258 34.5073 62.8814 34.6166 62.8258C34.6712 62.7147 34.8899 62.7147 34.9992 62.8258C35.0538 62.8814 34.9992 62.8814 34.9445 62.8258C34.8352 62.7703 34.3433 63.1593 34.4526 63.2704C34.5619 63.326 34.6166 63.2704 34.6712 63.1593C34.6712 62.937 35.0538 62.9925 35.1631 62.8814C35.1085 62.7147 35.3818 62.7703 35.5457 62.548C35.8736 62.2701 35.655 62.4368 35.819 62.4924C35.983 62.4924 35.7643 62.159 35.9283 62.2145C36.2016 62.2145 36.5842 61.77 36.7481 61.6033C36.9667 61.5477 36.9121 61.1587 37.0214 61.1587C37.1307 61.2143 36.9121 61.4365 37.1307 61.2698C37.7866 60.8253 37.8959 60.7141 37.8959 60.603C37.8959 60.4918 37.8412 60.4918 37.7866 60.603C37.7866 60.7141 37.7319 60.7141 37.7319 60.6585C37.6772 60.4918 37.5133 60.6585 37.6226 60.7697C37.6772 60.9364 37.3493 60.6585 37.5133 60.8253C37.5679 60.9364 37.5679 60.9364 37.4586 60.8808C37.3493 60.8253 37.076 60.9364 37.1307 61.0475C37.1854 61.1031 36.9121 60.992 36.9121 60.9364C38.0052 60.3807 39.2622 59.1025 40.3007 58.4912C40.8472 58.0467 39.9727 58.9914 40.5739 58.5468C40.6286 58.4912 40.6833 58.4357 40.6833 58.4912C40.6833 58.6024 40.9565 58.1578 40.9019 58.3245C40.8472 58.4357 40.8472 58.4357 40.9565 58.3245C41.0658 58.2134 41.2298 58.269 41.2845 58.2134C41.2845 58.1022 41.667 57.9911 41.6124 57.88C41.5577 57.88 41.6124 57.8244 41.667 57.88C41.7217 57.88 41.8857 57.88 42.0496 57.7688C42.3775 57.6021 41.9403 57.6577 42.2682 57.5465C42.5415 57.491 42.5415 57.1575 42.7055 57.102C42.8148 56.9908 42.7055 56.8797 42.9787 56.7129C43.5799 56.2128 44.7823 55.2681 45.2742 55.7127C45.2196 55.7682 45.2196 55.7682 45.3835 55.7127C45.6022 55.6015 45.9847 55.6015 45.9847 55.7127C46.0394 55.8238 46.5313 56.0461 46.5313 56.2684C46.5313 56.4907 46.8046 56.3795 46.8592 56.5462C46.8592 56.7129 46.8592 56.7129 46.8046 56.5462C46.6953 56.4907 46.6953 56.5462 46.6953 56.8797C46.6953 57.6021 46.8592 56.8797 46.8592 57.2687C46.8592 57.3798 46.8046 57.4354 46.8046 57.4354C46.586 57.5465 46.8046 57.9911 46.8592 58.1022C46.586 58.1022 46.586 58.8247 46.6953 59.6582C47.0778 61.8811 46.5313 60.0472 46.8592 62.1034C46.9139 63.2704 46.9685 64.1595 47.0778 65.271C46.9685 66.7158 47.5697 73.829 47.2418 75.1627C47.0778 75.3294 47.2965 75.3294 47.2418 75.4406C47.1325 75.6629 47.1325 76.2186 47.2418 76.2742C47.3511 76.3297 47.3511 76.3297 47.2418 76.3297C47.1872 76.3297 47.1325 76.4965 47.1325 76.7743C47.1325 77.4967 47.3511 76.6076 47.2965 77.33C47.2965 77.6635 47.2965 77.6635 47.2418 77.4412C47.1325 77.0522 47.0778 78.7193 47.2418 78.5526C47.4058 78.5526 47.4604 78.7749 47.3511 78.9416C47.4604 79.275 47.5151 79.9419 47.3511 83.4985C47.2418 85.7769 47.2418 84.7766 47.0232 85.7213C47.0232 85.7769 46.9685 85.8325 46.9139 85.7769C46.8046 85.7769 46.586 86.3326 46.4766 86.3882C46.422 86.4438 46.4766 86.4438 46.586 86.4438C46.9685 86.4994 46.258 86.5549 46.5313 86.7216C46.8592 87.5552 46.3127 89.7781 46.4766 90.5005C46.7499 89.1668 46.586 88.3332 46.9139 88.0554C47.0232 87.8331 47.0778 87.8331 47.0232 88.3888C46.8046 90.0004 46.6953 90.1115 46.6953 91.3897C46.6953 91.3341 46.6406 92.4455 46.6953 93.0012C46.6953 93.1124 46.8046 93.2235 46.9139 93.2235C47.2418 93.3902 46.9139 93.3902 47.6244 93.4458C49.264 93.5569 51.5049 93.2791 52.0514 94.0015C51.9968 94.1127 52.1607 94.0571 52.1607 94.2238C52.0514 94.4461 51.9968 94.5017 52.1607 94.8351ZM46.9139 88.2221C46.8592 87.9998 46.8592 88.4444 46.9139 88.3888C46.9685 88.3332 46.9685 88.2776 46.9139 88.2221ZM47.2418 84.6655C47.2418 84.6099 47.0778 84.4432 47.0778 84.6655C47.0778 84.7766 47.2418 84.8322 47.2418 84.6655ZM30.9547 69.1054C31.1187 69.0499 31.1734 68.8831 30.9547 68.9387C30.9001 68.9387 30.8454 68.9387 30.9001 68.8831C30.9547 68.8276 30.7908 68.772 30.7361 68.8831C30.6815 69.0499 30.7361 69.2166 30.9547 69.1054ZM32.2118 70.6059C32.2118 70.717 32.5944 70.4391 32.5397 70.4391C32.4851 70.3836 32.2118 70.4947 32.2118 70.6059ZM33.0316 70.3836C33.0863 70.4391 33.5235 70.1057 33.2502 70.1057C33.0316 70.1613 33.2502 69.939 33.1409 69.9946C33.0316 70.0501 33.0316 70.1057 33.0316 70.1057C33.0863 70.2724 32.7583 70.1057 32.7583 70.2169C32.649 70.8281 32.5944 70.6059 33.0316 70.3836ZM33.6328 69.939C33.7968 69.7723 33.0316 69.8834 33.4142 69.9946C33.4688 69.9946 33.5782 70.0501 33.5782 70.0501C33.5782 70.0501 33.6328 69.9946 33.6328 69.939ZM36.8028 61.8255C36.4202 62.159 37.076 61.8255 36.9667 61.7144C36.9667 61.7144 36.8574 61.77 36.8028 61.8255ZM41.9403 68.2718C41.8857 68.383 42.1589 68.3274 42.1589 68.3274C42.1589 68.2718 41.995 68.2163 41.9403 68.2718ZM34.7806 94.2238C34.8352 94.1682 33.9607 94.1127 34.1247 94.2794C34.1794 94.3349 34.7259 94.3349 34.7806 94.2238ZM34.1794 93.3347C33.7968 93.1679 33.7968 93.4458 34.1247 93.4458C34.3433 93.4458 34.3433 93.4458 34.1794 93.3347ZM34.2887 94.5017C34.3433 94.2794 33.9061 94.5572 34.1247 94.6128C34.1794 94.6128 34.234 94.5572 34.2887 94.5017ZM34.1247 96.9468C34.1247 97.0024 34.398 97.0024 34.398 96.9468C34.398 96.9468 34.1247 96.7801 34.1247 96.9468ZM34.2887 96.7245C34.2887 96.8357 34.7259 96.8912 34.5073 96.7245C34.3433 96.6134 34.234 96.6134 34.2887 96.7245ZM34.8352 97.1135C34.7806 97.058 34.7806 97.0024 34.8899 96.9468C35.0538 96.669 34.6712 97.058 34.6166 96.9468C34.2887 96.8357 35.0538 97.3358 34.8352 97.1135ZM35.655 93.7237C35.7097 93.6681 35.655 93.6125 35.5457 93.6125C35.1631 93.5569 35.655 93.946 35.655 93.7237ZM40.6833 90.6672C40.6833 90.3894 40.7926 88.8334 40.5739 89.6114C40.5193 89.9448 40.5739 92.2232 40.6833 90.6672ZM40.7379 89.0556C40.7926 88.3888 40.7926 86.8884 40.7379 86.8884C40.6833 86.8884 40.6833 87.1662 40.6833 87.4996C40.6833 88.2221 40.6286 88.6666 40.5739 88.7222C40.4646 88.7778 40.4646 87.9998 40.4646 87.8886C40.4646 88.1109 40.3007 88.8334 40.4646 88.8889C40.6833 89.0001 40.5739 89.6114 40.7379 89.0556ZM40.8472 84.5543C40.7926 84.3321 41.0112 84.2209 40.8472 84.1098C40.7926 84.0542 40.7379 84.0542 40.7926 84.1098C40.8472 84.2765 40.4646 84.7211 40.7926 84.7766C40.8472 84.7766 40.8472 84.6655 40.8472 84.5543ZM40.7926 83.5541C40.7379 83.7763 40.9019 83.8875 40.9565 83.6652C40.9565 83.6096 40.7379 83.165 40.7926 83.5541ZM41.0112 85.9992C41.0112 85.9436 41.0112 85.8881 41.0112 85.8325C40.9565 85.6102 40.9565 86.0548 41.0112 85.9992ZM41.0112 79.7196C41.0112 79.664 41.0112 79.5529 41.0112 79.4973C40.9565 79.3862 40.9565 79.8863 41.0112 79.7196ZM41.1751 89.0556C41.2298 89.0556 41.2298 89.0001 41.1751 88.9445C41.1205 88.7222 41.1205 89.1668 41.1751 89.0556ZM41.4484 86.7216C41.3938 86.4993 41.3391 86.9439 41.4484 86.8884C41.4484 86.8328 41.4484 86.7772 41.4484 86.7216ZM41.4484 87.1662C41.5577 87.3885 41.5577 87.0551 41.5031 86.9995C41.4484 86.8884 41.3391 87.0551 41.4484 87.1662ZM42.3229 69.2166C42.3229 69.2166 42.3229 69.161 42.3229 69.0499C42.2682 68.8276 42.2136 69.3277 42.3229 69.2166ZM42.3775 68.4386C42.4322 68.383 42.4322 68.3274 42.4322 68.2718C42.3229 68.0496 42.3229 68.5497 42.3775 68.4386ZM45.1649 56.0461C45.4929 55.7682 45.0556 55.9349 45.0556 56.0461C45.0556 56.1017 45.001 56.1017 44.9463 56.1017C44.7277 56.1017 44.9463 56.3795 45.1649 56.0461ZM46.4766 63.9373C46.422 63.7705 46.4766 64.493 46.4766 64.2707C46.5313 64.2151 46.5313 64.0484 46.4766 63.9373ZM46.5313 64.882C46.4766 64.8264 46.4766 64.9376 46.5313 65.3821C46.5859 65.6044 46.6406 64.882 46.5313 64.882ZM46.5313 61.4921C46.5313 61.8811 46.6406 61.5477 46.586 61.381C46.586 61.3254 46.5313 61.381 46.5313 61.4921ZM46.6953 69.939C46.6953 69.8834 46.6953 69.7167 46.6953 69.6056C46.6406 69.4389 46.6406 70.1613 46.6953 69.939ZM46.8046 85.3879C46.6406 85.4435 46.9685 85.8325 46.9139 85.4991C46.8592 85.4435 46.8046 85.3879 46.8046 85.3879ZM46.8046 69.2721C46.8046 68.8276 46.5313 69.4389 46.6953 69.4389C46.7499 69.4389 46.8046 69.3833 46.8046 69.2721ZM46.6406 65.9378L46.5313 65.5488C46.5313 65.66 46.4766 66.5491 46.586 66.3824C46.6953 66.2713 46.6953 66.1601 46.6406 65.9378ZM46.586 56.6018C46.586 56.3239 46.3127 56.7685 46.5313 56.7685C46.5859 56.7685 46.586 56.7129 46.586 56.6018ZM46.586 60.8808C46.586 60.1584 46.2034 61.1031 46.586 61.1587C46.586 61.1587 46.586 61.0475 46.586 60.8808ZM46.0941 59.6582C45.9847 59.436 45.9847 59.9361 46.0394 59.825C46.0941 59.825 46.0941 59.7138 46.0941 59.6582ZM46.0394 63.0481C45.8754 62.6591 45.9301 63.2148 46.0394 63.2148C46.0394 63.2148 46.0394 63.1593 46.0394 63.0481ZM46.0941 64.3263C46.0941 64.2707 46.0941 64.1595 46.0941 64.104C45.9847 63.9373 46.0394 64.493 46.0941 64.3263ZM46.0941 61.2698C46.2034 61.5477 46.2034 60.603 46.0941 60.9364C45.9301 61.2143 45.9847 59.6582 45.9847 61.1587C45.9847 62.6035 45.9301 61.1587 46.0941 61.2698ZM46.3673 59.5471C46.258 58.9358 46.2034 59.7138 46.3127 59.7694C46.3127 59.7694 46.3673 59.6582 46.3673 59.5471ZM46.3673 60.1028C46.2034 59.8805 46.2034 60.7697 46.3673 60.3807C46.422 60.2695 46.422 60.1584 46.3673 60.1028ZM46.3673 67.605C46.422 67.605 46.422 67.5494 46.422 67.4938C46.3673 67.2716 46.3127 67.7161 46.3673 67.605ZM46.3673 62.9925C46.3127 63.4371 46.5313 63.715 46.422 63.1037C46.422 62.8258 46.3673 62.8258 46.3673 62.9925Z" fill="black"/>
<defs>
<linearGradient id="paint0_linear_16_195" x1="200.341" y1="13.1052" x2="-32.8618" y2="138.914" gradientUnits="userSpaceOnUse">
<stop offset="0.249991" stop-color="#02FF0D"/>
<stop offset="0.628251" stop-color="#EAE100"/>
</linearGradient>
</defs>
</svg>
