<svg width="1482" height="872" viewBox="0 0 1482 872" fill="none" xmlns="http://www.w3.org/2000/svg">
<path d="M738.764 1.11341C737.984 3.19098 736.166 24.7458 734.347 49.1572C730.19 111.225 724.734 157.97 720.058 168.877C712.524 186.796 704.989 178.746 660.303 104.732C631.984 58.2466 619.253 40.0679 614.837 40.0679C611.459 40.0679 613.797 45.5215 638.999 99.0189C651.209 124.469 667.058 161.606 674.592 181.602C688.362 218.479 692.778 227.309 692.778 217.7C692.778 212.247 684.465 178.226 680.827 168.618C679.788 165.501 684.984 169.137 693.558 177.188C710.445 192.769 718.499 194.068 727.332 182.641C733.828 173.811 739.284 149.66 739.803 128.365C740.063 112.783 740.323 113.822 743.7 141.09C747.857 174.591 753.053 188.095 763.705 191.73C772.798 194.847 781.372 188.874 793.843 170.955C798.779 163.943 801.897 160.567 800.857 163.424C796.701 175.11 789.166 205.754 787.348 217.96C784.749 237.177 789.426 230.166 799.299 199.781C803.975 185.498 819.823 147.842 834.632 116.159C860.093 61.6226 864.25 50.4557 859.573 50.4557C858.534 50.4557 849.441 63.4405 839.568 79.282C782.151 169.656 771.499 183.68 764.744 177.967C758.249 172.773 752.274 132.26 747.337 59.5451C744.22 14.8773 741.362 -5.1193 738.764 1.11341Z" fill="#222224"/>
<path d="M492.728 51.2379C492.728 58.2497 600.287 169.919 607.042 169.919C615.356 169.919 585.478 133.042 540.272 87.3357C504.159 50.9782 492.728 42.4083 492.728 51.2379Z" fill="#222224"/>
<path d="M961.158 68.1173C923.746 101.099 869.447 162.647 869.447 172.256C869.447 178.488 883.216 166.023 922.707 124.212C962.717 81.8812 985.58 54.0937 982.982 51.4968C982.202 50.7177 972.59 58.2489 961.158 68.1173Z" fill="#222224"/>
<path d="M148.485 113.04C147.446 114.339 148.485 117.715 150.563 120.052C158.877 129.661 167.711 151.735 171.868 173.809C179.402 214.841 191.353 233.799 221.75 253.536C239.157 264.963 239.937 268.599 223.569 263.405C209.279 258.47 187.716 259.769 148.225 267.04C110.553 274.312 97.8229 277.948 97.8229 281.843C97.8229 285.479 123.544 309.371 138.093 318.98C163.814 336.12 192.392 342.612 214.216 336.12C222.01 334.042 222.789 334.302 221.231 338.197C202.265 382.605 198.108 404.939 198.108 455.58C198.368 493.236 199.147 501.546 205.123 523.62C217.853 571.924 239.417 609.839 275.53 647.236C344.898 719.431 445.962 745.661 540.791 716.055C629.125 688.268 699.792 617.63 727.591 528.814C737.984 495.833 739.802 476.875 738.763 418.184L737.984 364.167L730.969 358.973C727.072 356.116 723.954 352.48 723.954 350.663C723.954 345.728 703.949 305.735 693.297 289.894C659.782 238.993 602.105 198.74 537.933 181.081C515.33 174.848 507.536 174.069 473.242 174.069C431.673 173.809 414.266 176.666 377.893 189.651C355.03 197.701 332.947 209.647 311.123 225.749C302.03 232.501 293.976 237.175 293.197 236.136C292.417 235.357 291.638 225.749 291.378 214.582C291.118 200.298 289.559 191.209 285.662 182.639C271.633 151.475 234.221 125.766 186.157 113.82C168.75 109.664 150.823 109.145 148.485 113.04ZM209.02 136.413C245.652 148.879 271.893 176.926 276.309 207.57C277.868 218.997 272.672 232.241 266.956 232.241C265.657 232.241 261.5 225.489 257.603 217.179C251.368 203.674 234.74 182.899 229.804 182.899C228.765 182.899 232.662 192.508 238.378 204.454C250.069 229.125 253.966 245.226 247.991 245.226C240.716 245.226 217.333 231.722 209.799 222.892C197.069 208.609 191.613 195.364 187.456 168.356C185.118 154.332 182.26 141.088 180.701 138.491C174.725 127.324 181.22 126.804 209.02 136.413ZM534.296 198.481C576.904 209.388 609.12 227.567 643.934 260.288C666.018 281.324 679.268 298.723 692.518 325.212L700.572 341.313L672.253 327.29C631.463 306.774 574.306 282.622 538.193 270.676C473.242 249.381 440.506 243.668 356.329 238.474L330.609 236.916L336.844 231.462C352.952 218.217 404.913 198.221 436.869 193.027C459.212 189.391 509.874 192.248 534.296 198.481ZM279.687 249.641C279.687 250.42 273.971 257.432 266.696 264.963C255.785 276.389 253.706 277.688 253.706 273.013C253.966 264.963 259.682 255.354 266.956 251.459C273.711 247.823 279.687 246.784 279.687 249.641ZM391.403 256.652C473.502 260.808 586.257 295.867 679.527 345.988C710.444 362.868 716.16 368.062 716.16 378.969C716.16 383.384 688.101 407.017 669.655 418.443L657.444 426.234L658.483 412.99C659.003 405.718 657.964 394.551 656.145 388.059L652.767 376.372L650.949 394.811C649.13 415.067 643.155 427.013 634.841 427.013C631.723 427.013 616.135 413.769 594.311 392.474C574.826 373.516 554.301 354.298 548.585 349.883C533.517 338.457 507.796 325.991 494.806 324.174L483.634 322.615L496.624 330.666C503.899 334.821 516.629 344.43 525.203 351.961C540.531 365.206 540.531 365.465 531.698 363.388C526.762 362.349 510.394 357.415 495.325 352.74C429.595 331.964 339.182 314.045 285.402 310.929L255.785 309.371L263.839 302.099C273.451 293.789 294.236 290.413 324.893 292.491C343.079 293.789 343.079 293.789 334.246 289.894C329.31 287.816 313.461 285.479 299.432 284.44L273.711 282.882L285.402 269.897L297.354 256.912L322.814 255.614C337.104 254.835 352.173 254.575 356.329 254.835C360.746 255.094 376.334 256.133 391.403 256.652ZM215.515 281.583C224.608 284.44 233.701 288.595 235.52 290.673C238.378 294.049 235.52 294.568 213.177 294.828C184.338 295.347 190.573 298.983 220.711 299.502C236.039 299.762 238.378 300.281 237.598 304.177C237.079 306.774 230.324 312.228 222.53 316.123C198.627 328.329 173.946 323.914 142.769 301.58C136.534 297.165 131.598 292.231 131.598 290.673C131.598 285.219 163.554 277.169 186.417 276.649C193.172 276.389 206.162 278.727 215.515 281.583ZM338.143 332.484C360.486 335.6 365.942 337.678 377.893 345.728C393.741 356.376 409.59 373.776 419.462 390.656C424.658 399.485 426.737 401.044 427.256 397.408C428.815 389.877 422.58 370.919 414.526 358.194L406.991 346.507L414.266 348.066C418.163 349.104 432.193 352.48 445.443 355.856C458.693 359.233 469.864 362.089 470.384 362.089C471.163 362.089 471.423 372.217 471.163 384.683C471.163 397.408 471.683 410.912 472.722 415.327L474.801 423.118L459.212 422.339C450.119 421.819 441.286 422.598 437.649 424.676C432.193 427.792 433.232 428.312 451.158 431.428C479.217 436.622 512.992 453.762 535.595 474.538C564.693 501.027 574.306 503.624 555.6 479.732C543.649 464.669 522.345 446.49 503.899 435.064C496.365 430.389 490.129 425.715 490.129 424.936C490.129 423.897 488.83 415.587 487.531 406.238C486.232 397.148 485.972 384.683 486.752 378.71L488.311 367.543L512.473 376.372C530.659 382.865 582.36 409.354 588.336 415.067C588.595 415.587 585.478 422.598 581.061 430.909C574.826 442.855 573.267 448.828 573.267 462.072C573.267 484.666 576.385 491.937 585.738 491.937C589.894 491.937 595.35 489.86 597.689 487.003C602.885 481.29 612.238 457.917 612.238 450.386C612.238 443.634 615.875 442.076 623.669 445.452C631.983 449.347 644.454 444.673 650.429 435.583C656.145 427.013 659.003 428.312 657.184 438.7C655.365 449.347 658.483 450.126 666.797 441.297C670.174 437.661 673.292 435.064 673.552 435.583C674.071 436.103 671.473 443.374 668.096 451.944C659.003 473.759 659.522 507.519 668.616 507.519C675.89 507.519 691.738 488.302 697.974 472.46C702.13 461.813 704.209 450.646 704.729 436.882C705.248 418.184 705.768 416.366 713.042 410.393L720.577 403.641L722.135 423.897C723.694 447.529 720.057 489.081 714.601 512.713C706.287 549.071 679.527 595.037 646.532 629.836C596.13 683.334 524.164 712.939 454.016 709.303C390.884 706.187 341.001 684.372 294.496 640.224L274.491 621.006L290.858 612.696C312.942 601.789 343.599 578.416 361.266 559.199C374.776 544.656 378.673 538.423 373.996 538.683C372.697 538.942 360.486 547.512 346.197 557.9C320.216 577.377 292.417 592.7 272.152 598.673C261.5 601.789 260.721 601.789 256.044 595.556C247.211 584.649 228.245 543.098 222.789 522.841C206.422 463.371 211.878 403.641 238.897 342.872L246.951 325.212L279.427 327.03C297.354 327.809 323.854 330.406 338.143 332.484Z" fill="#222224"/>
<path d="M421.541 471.163C414.267 474.019 406.732 478.175 404.654 480.252C400.757 484.148 402.056 484.148 418.164 482.589C427.776 481.551 435.571 481.551 435.571 482.589C435.571 483.628 431.414 490.121 426.477 497.652C412.188 518.168 405.693 542.579 405.693 575.041C405.693 600.232 406.213 603.608 413.747 619.19C424.399 641.783 435.311 653.729 453.237 662.559C466.487 669.051 470.644 669.83 495.326 669.83C519.228 669.83 524.424 669.051 537.154 663.078C544.949 659.443 560.017 648.795 570.669 639.706C581.062 630.616 595.611 618.151 603.145 612.438C610.42 606.465 620.032 596.077 624.709 589.065C631.204 578.677 635.101 575.561 646.013 571.665C661.341 566.212 679.268 551.928 670.954 551.669C668.096 551.669 660.562 554.266 654.067 557.382C637.959 565.432 604.444 566.731 581.321 560.758C545.208 551.409 510.914 528.296 486.233 497.132C479.218 488.043 475.061 481.551 476.88 482.589C478.698 483.888 485.973 486.225 493.247 488.303L506.497 491.679L498.963 483.888C483.115 467.267 447.002 461.294 421.541 471.163ZM463.889 495.834C467.267 501.028 479.738 514.272 491.429 525.439C522.865 555.045 557.679 571.925 597.429 576.599C605.483 577.379 612.238 579.196 612.238 580.235C612.238 584.39 594.312 597.895 584.959 601.011C556.9 610.36 491.948 579.975 461.811 543.878C448.561 528.036 444.404 517.129 447.262 507.001C450.38 496.094 454.277 486.744 456.095 486.744C456.875 486.744 460.512 490.9 463.889 495.834ZM436.35 563.615C475.061 583.092 519.488 618.67 531.179 639.446L537.154 650.094L522.346 654.508C483.894 665.675 443.105 647.756 427.517 612.697C421.801 600.232 416.865 556.862 421.021 556.862C422.061 556.862 428.816 559.979 436.35 563.615Z" fill="#222224"/>
<path d="M558.459 663.339C550.925 670.091 540.273 677.882 534.557 680.479C522.606 686.193 520.528 690.867 530.92 688.01C540.013 685.933 560.538 670.351 568.072 660.223C576.646 648.537 573.268 649.575 558.459 663.339Z" fill="#222224"/>
<path d="M974.667 179.008C893.608 194.85 824.499 242.634 785.269 309.895C740.323 386.505 735.126 484.151 771.499 562.839C799.039 622.569 855.676 677.625 915.172 703.075C954.922 720.215 977.005 724.37 1025.33 724.111C1063.26 723.851 1071.31 723.072 1094.18 717.099C1235.51 679.443 1322.55 541.284 1293.97 399.75C1282.28 342.876 1258.37 299.507 1215.77 257.956C1161.47 205.237 1099.37 178.489 1026.63 176.411C1004.54 175.632 986.618 176.671 974.667 179.008ZM1052.09 196.148C1074.69 199.524 1116.26 211.47 1116.26 214.586C1116.26 215.885 1114.44 217.443 1112.36 218.222C1104.31 221.339 1077.81 260.553 1069.76 281.328C1060.66 304.961 1054.95 336.644 1057.54 350.408C1060.14 363.133 1063.78 361.834 1065.86 347.032C1072.09 303.922 1099.63 251.204 1127.43 229.129L1136.27 222.118L1153.41 232.246C1201.74 260.293 1233.17 294.833 1256.82 344.954C1299.94 436.886 1287.21 537.908 1223.04 615.298C1207.97 633.217 1204.59 635.294 1204.59 626.984C1204.59 618.155 1194.2 593.743 1183.55 577.902C1173.42 562.58 1141.72 533.753 1140.16 538.428C1139.64 539.726 1145.36 548.296 1152.63 557.386C1169.26 577.642 1182.77 603.611 1187.71 624.907C1189.79 633.996 1191.6 642.566 1191.6 644.384C1191.6 652.434 1126.65 690.869 1100.41 698.401C1023.25 720.215 932.319 703.595 869.446 656.07C821.901 619.972 777.735 552.192 767.862 499.733C762.666 472.205 763.965 421.824 770.46 395.075C778.254 362.873 778.514 362.354 789.166 371.962L797.999 379.753L792.024 386.246C770.46 409.099 799.818 504.927 828.137 504.927C836.97 504.927 836.191 499.473 826.058 490.644C809.431 476.36 796.96 445.716 796.7 418.708C796.7 396.893 800.338 394.296 817.744 404.165C827.357 409.618 827.617 409.878 823.46 414.812C813.328 425.72 816.965 468.569 829.176 486.229C832.553 490.903 834.112 491.423 839.568 488.826C846.323 485.969 847.103 483.892 849.701 468.05C851.26 459.74 847.103 434.03 842.166 421.305C840.867 417.929 842.166 416.89 847.882 416.111C860.353 414.812 857.235 406.242 840.867 397.153C830.475 391.44 823.46 384.688 815.146 373.001C808.911 363.912 799.818 354.043 795.141 350.927C790.205 347.811 786.308 344.175 786.308 342.876C786.308 341.838 791.764 331.45 798.779 319.763C821.642 280.809 870.745 235.882 909.716 217.703C953.883 197.446 1006.62 189.396 1052.09 196.148Z" fill="#222224"/>
<path d="M978.825 272.495C960.119 281.325 940.374 302.62 908.937 347.547C894.908 367.284 881.658 384.944 879.06 386.502C875.162 388.839 873.604 388.06 869.187 382.866C866.329 379.23 863.471 373.257 862.692 369.362C860.613 360.013 856.456 362.61 856.456 373.257C856.456 395.851 868.927 413.251 882.697 410.394C889.192 409.095 889.712 410.134 894.388 424.937C899.584 442.337 907.638 453.763 919.07 459.736C925.825 463.112 926.864 463.112 931.8 458.178C936.217 453.763 936.996 449.608 936.996 428.313C936.996 401.564 934.138 392.215 922.967 383.645L916.991 378.711L933.619 364.687C980.643 324.954 1007.4 320.799 1017.28 351.962C1020.13 360.792 1020.39 365.986 1018.06 376.893C1013.38 399.487 1007.14 409.095 981.942 433.507C956.222 457.918 942.192 476.357 942.192 485.186C942.192 489.082 948.168 484.148 964.016 467.008C996.232 432.468 1025.85 415.068 1060.92 409.874C1067.68 409.095 1074.43 407.537 1075.73 406.758C1084.05 402.084 1043.78 398.967 1032.08 403.642C1024.03 406.498 1024.29 406.758 1029.23 394.812C1034.42 382.866 1034.94 356.637 1030.53 342.094C1026.63 329.628 1014.68 316.124 1005.33 313.787C994.413 310.93 974.148 314.306 960.639 321.058C949.986 326.252 948.168 326.512 949.987 322.876C954.923 313.787 993.114 281.065 1006.36 274.573C1013.9 270.937 1020.13 267.561 1020.13 267.041C1020.13 266.522 1013.9 266.003 1006.62 266.003C997.531 266.003 988.178 268.34 978.825 272.495Z" fill="#222224"/>
<path d="M1020.39 458.179C1005.33 465.191 992.335 476.098 959.6 508.56C924.006 543.879 906.859 552.968 874.643 552.968C856.976 552.968 850.741 551.929 843.467 547.514C829.697 539.464 825.28 538.165 827.099 542.84C829.437 549.072 851.001 564.395 861.913 567.511C874.124 571.147 896.467 595.818 925.565 637.11C951.286 673.986 957.521 677.622 995.712 677.622C1020.65 677.622 1022.73 677.103 1041.7 667.754C1074.95 651.393 1099.12 618.411 1105.87 580.755C1111.33 550.371 1106.39 527.258 1085.61 485.966C1083.79 482.331 1094.18 487.524 1109.25 497.653L1124.32 507.781L1120.16 499.471C1102.49 465.45 1050.79 443.896 1020.39 458.179ZM1056.77 474.28C1062.48 475.838 1066.9 478.175 1066.9 479.734C1066.9 484.408 1048.45 507.002 1032.34 522.324C999.09 553.487 959.6 574.263 921.668 580.755L902.962 583.872L896.727 576.341C893.349 571.926 891.53 567.771 892.31 566.992C893.349 565.953 900.104 563.356 907.638 561.019C927.643 554.526 950.766 538.425 978.565 511.676C1019.61 472.202 1031.31 466.489 1056.77 474.28ZM1089.76 571.147C1086.64 619.45 1047.41 659.184 999.61 662.819C981.163 664.118 964.276 659.184 961.418 651.653C959.08 645.68 971.81 621.787 983.502 610.361L993.634 600.492L991.036 612.179C989.737 618.931 988.958 627.501 989.477 631.396C990.516 637.889 990.776 637.629 993.894 626.981C1003.51 593.74 1024.03 569.848 1053.39 557.902C1061.7 554.526 1073.39 551.669 1079.63 551.669H1091.06L1089.76 571.147Z" fill="#222224"/>
<path d="M937.254 464.153C934.916 467.009 922.705 468.568 922.705 465.971C922.705 465.711 919.587 465.192 915.95 464.932C909.455 464.413 909.195 464.672 912.833 470.126C919.847 480.773 927.641 480.254 938.034 468.827C940.892 465.711 942.45 462.854 941.671 462.075C940.892 461.296 939.073 462.335 937.254 464.153Z" fill="#222224"/>
<path d="M1304.62 332.749C1292.93 335.346 1292.15 335.865 1295.53 340.02C1299.69 344.954 1318.39 344.954 1369.57 340.02C1391.14 337.943 1409.32 336.125 1410.62 336.125C1411.66 336.125 1412.44 334.826 1412.44 333.528C1412.44 330.931 1315.79 330.152 1304.62 332.749Z" fill="#222224"/>
<path d="M75.2195 411.436C47.9399 412.735 23.5182 414.553 21.1799 416.111C16.2436 418.708 42.2242 420.526 125.362 423.382C171.607 424.941 174.985 424.941 176.803 420.526C177.843 417.929 177.583 414.812 176.544 414.033C172.906 410.657 126.141 409.619 75.2195 411.436Z" fill="#222224"/>
<path d="M1317.61 413.772C1316.57 415.59 1317.35 418.706 1319.43 420.783C1322.55 423.9 1332.68 424.16 1390.62 421.563C1427.51 420.004 1458.42 418.186 1458.94 417.667C1462.06 414.81 1452.19 414.031 1388.54 412.213C1334.76 410.915 1319.17 411.434 1317.61 413.772Z" fill="#222224"/>
<path d="M61.9707 480.254C28.7156 482.072 0.656572 484.15 0.136961 484.929C-2.7209 487.785 39.3676 489.863 105.618 490.123C173.687 490.642 174.466 490.642 175.246 485.188C176.545 475.58 163.035 474.8 61.9707 480.254Z" fill="#222224"/>
<path d="M1319.95 482.332C1315.79 493.239 1324.63 494.538 1389.06 491.681C1509.87 486.487 1512.72 483.111 1398.67 480.254C1329.56 478.436 1321.51 478.696 1319.95 482.332Z" fill="#222224"/>
<path d="M77.2993 549.588C46.3825 551.666 40.9265 552.704 43.7844 555.561C44.304 556.34 77.0395 557.379 116.27 558.418C189.535 559.976 198.628 558.937 191.614 550.627C188.756 547.251 181.741 546.472 148.746 546.731C127.182 546.991 94.9661 548.29 77.2993 549.588Z" fill="#222224"/>
<path d="M1294.49 577.38C1290.33 583.872 1296.83 585.43 1324.89 585.43C1371.91 585.43 1414.52 582.314 1406.98 579.717C1396.85 575.822 1296.57 573.744 1294.49 577.38Z" fill="#222224"/>
<path d="M157.579 615.816C152.643 616.076 138.873 617.374 127.182 618.153C85.6133 621.01 105.618 624.386 164.854 624.386C221.751 624.386 232.923 623.088 229.286 616.855C227.467 614.258 181.481 613.479 157.579 615.816Z" fill="#222224"/>
<path d="M689.402 659.444C685.245 666.456 674.853 687.491 666.279 706.189C657.706 724.628 641.338 758.388 630.166 780.722C618.735 803.316 609.642 823.053 609.642 824.871C609.901 830.844 628.867 807.471 658.225 764.361C687.583 721.511 703.431 702.294 709.667 702.294C717.461 702.294 722.397 732.938 726.554 803.575C729.932 861.747 731.49 876.031 734.348 871.096C736.427 866.682 737.726 854.476 743.441 784.358C748.118 726.446 753.314 699.697 760.069 699.697C767.344 699.697 786.569 722.55 827.359 780.203C852.3 815.262 857.496 821.754 861.393 821.754C862.952 821.754 864.251 821.235 864.251 820.715C864.251 816.041 780.074 650.095 779.295 653.211C778.255 657.107 794.883 706.709 801.638 720.732L804.755 726.965L799.819 721.252C796.961 718.135 792.025 712.162 788.648 708.267C758.77 673.468 744.221 680.999 737.206 734.756C735.647 748.52 734.868 750.338 734.608 742.547C733.569 717.876 725.775 695.022 716.941 691.646C708.627 688.53 700.314 692.945 683.946 709.306C676.931 716.058 671.735 719.953 672.774 717.876C696.936 659.184 704.73 631.656 689.402 659.444Z" fill="#222224"/>
<path d="M586.259 740.472C544.69 776.31 495.587 826.172 495.327 832.664C495.327 839.936 516.631 823.575 553.264 788.256C570.671 771.376 604.445 732.941 604.445 729.825C604.445 726.189 599.509 729.045 586.259 740.472Z" fill="#222224"/>
<path d="M877.24 736.054C885.034 750.597 978.824 834.739 987.138 834.739C998.309 834.739 906.858 747.481 882.176 734.756C874.382 730.601 874.382 730.601 877.24 736.054Z" fill="#222224"/>
</svg>
