<svg width="1834" height="1135" viewBox="0 0 1834 1135" fill="none" xmlns="http://www.w3.org/2000/svg">
<path fill-rule="evenodd" clip-rule="evenodd" d="M687.19 630C861.157 630 1002.19 488.97 1002.19 315C1002.19 291.297 999.57 268.206 994.607 246H379.771C384.431 225.144 391.16 205.069 399.731 186H974.647C925.366 76.3528 815.193 0 687.188 0C559.183 0.00109378 449.011 76.3536 399.731 186C391.16 205.069 384.431 225.144 379.771 246C375.438 265.386 372.893 285.447 372.316 306L669.187 306L708.31 366H376.298C379.676 386.751 385.081 406.821 392.304 426C400.281 447.18 410.471 467.275 422.598 486C472.105 562.445 553.843 616.076 648.57 627.656C661.226 629.204 674.116 630 687.19 630ZM422.598 486C410.471 467.275 400.281 447.18 392.304 426L609.187 426L648.307 486H422.598ZM906.188 303H834.188L873.188 363H945.188L906.188 303Z" fill="white"/>
<path d="M328.887 426C335.335 446.835 343.549 466.893 353.356 486H286.166L246.967 426H328.887Z" fill="white"/>
<path d="M315.626 366C313.359 349.324 312.188 332.299 312.188 315C312.188 311.992 312.223 308.991 312.293 306H0L39.1875 366H315.626Z" fill="white"/>
<path d="M318.522 246C322.362 225.356 327.892 205.306 334.965 186L90.1875 186L129.387 246H318.522Z" fill="white"/>
<path d="M1059.15 363C1050.68 429.232 1024.94 490.064 986.59 540.833C1043.33 596.016 1120.79 630 1206.19 630C1317.12 630 1414.66 572.659 1470.78 486L1374.2 486L1413.4 426L1501.08 426C1508.3 406.821 1513.7 386.751 1517.08 366L1314.2 366L1353.4 306L1521.06 306C1520.49 285.447 1517.94 265.386 1513.61 246H1055.86C1059.32 264.643 1061.41 283.77 1062.01 303.273L1062.19 303H1134.19L1095.19 363H1059.15Z" fill="white"/>
<path d="M1039.41 186C1026.58 150.979 1008.68 118.404 986.59 89.1665C1043.33 33.9842 1120.79 0 1206.19 0H1206.2C1334.2 0.00232562 1444.37 76.3545 1493.65 186H1039.41Z" fill="white"/>
<path d="M1794.2 486L1540.02 486C1549.83 466.893 1558.04 446.835 1564.49 426L1833.2 426L1794.2 486Z" fill="white"/>
<path d="M1652.99 366L1577.75 366C1580.02 349.324 1581.19 332.299 1581.19 315C1581.19 311.992 1581.15 308.991 1581.08 306L1692.2 306L1652.99 366Z" fill="white"/>
<path d="M1731.4 246L1574.86 246C1571.02 225.356 1565.49 205.306 1558.41 186L1770.58 186L1731.4 246Z" fill="white"/>
<path d="M1393.65 916.2L1379.87 936H1324.65L1390.18 840H1461.42L1494.05 936H1441.25L1435.2 918.486L1421.08 876.5L1393.73 916.2H1393.65Z" fill="white"/>
<path d="M1524.11 840L1507.66 936H1616.12L1623.38 895.3H1562.44L1571.89 840H1524.11Z" fill="white"/>
<path d="M1575.3 820H1527.54L1534.06 782H1581.8L1575.3 820Z" fill="white"/>
<path d="M1652.18 840C1652.35 840.697 1652.55 841.384 1652.77 842.06C1654.53 847.34 1657.1 852.106 1660.47 856.36C1663.99 860.467 1667.88 864.06 1672.13 867.14C1676.53 870.073 1680.93 872.493 1685.33 874.4C1690.61 876.453 1695.16 878.36 1698.97 880.12C1702.93 881.733 1705.87 883.42 1707.77 885.18C1709.68 886.94 1710.27 889.213 1709.53 892C1709.09 894.2 1707.99 896.033 1706.23 897.5C1704.62 898.82 1702.64 899.846 1700.29 900.58C1698.09 901.167 1695.82 901.46 1693.47 901.46C1688.78 901.46 1684.53 900.433 1680.71 898.38C1676.9 896.326 1673.53 893.467 1670.59 889.8C1667.66 886.133 1665.09 882.027 1662.89 877.48L1627.91 900.8C1630.7 909.013 1635.1 916.273 1641.11 922.58C1647.13 928.886 1654.31 933.727 1662.67 937.1C1671.18 940.62 1680.49 942.453 1690.61 942.6C1701.32 942.6 1711.59 940.62 1721.41 936.66C1731.39 932.846 1739.82 927.2 1746.71 919.72C1753.75 912.093 1758.08 902.707 1759.69 891.56C1760.72 883.933 1760.13 877.04 1757.93 870.88C1755.88 864.573 1752.36 859.073 1747.37 854.38C1742.39 849.54 1736.08 845.727 1728.45 842.94C1725.86 841.903 1722.98 840.923 1719.81 840H1652.18Z" fill="white"/>
<path d="M1703.17 820H1652.14C1653.99 811.532 1657.8 804.292 1663.55 798.28C1670.15 791.386 1678.15 786.18 1687.53 782.66C1697.07 779.14 1706.97 777.453 1717.23 777.6C1727.06 777.6 1735.57 779.213 1742.75 782.44C1749.94 785.52 1755.95 789.7 1760.79 794.98C1765.78 800.113 1769.59 805.833 1772.23 812.14L1734.83 831.5C1733.07 828.42 1731.09 825.853 1728.89 823.8C1726.84 821.6 1724.57 819.987 1722.07 818.96C1719.58 817.787 1716.79 817.2 1713.71 817.2C1711.81 817.2 1709.83 817.493 1707.77 818.08C1706.02 818.454 1704.49 819.094 1703.17 820Z" fill="white"/>
<path d="M1454.62 820H1403.83L1437.73 770.34L1454.62 820Z" fill="white"/>
<path d="M1351.16 820L1376.52 782H1319.32L1298.86 820H1351.16Z" fill="white"/>
<path d="M1271 820L1262.34 782H1207.12L1220.67 820H1271Z" fill="white"/>
<path fill-rule="evenodd" clip-rule="evenodd" d="M1227.79 840L1266.08 947.44L1337.8 840H1227.79ZM1279.48 856H1279.2L1279.28 856.36L1279.48 856Z" fill="white"/>
<path d="M1184.09 840L1167.63 936H1118.79L1135.25 840H1184.09Z" fill="white"/>
<path d="M1187.51 820L1194.03 782H1145.19L1138.67 820H1187.51Z" fill="white"/>
<path d="M1113.12 820C1112.44 815.217 1111.05 810.837 1108.95 806.86C1104.99 798.94 1098.69 792.853 1090.03 788.6C1081.38 784.2 1070.67 782 1057.91 782H995.873L989.358 820H1113.12Z" fill="white"/>
<path d="M985.93 840L969.473 936H1017.21L1025.51 887.6H1031.98L1050.21 936H1103.89L1077.88 881.054C1087.82 876.809 1095.83 870.777 1101.91 862.96C1107.07 856.333 1110.53 848.68 1112.29 840H985.93Z" fill="white"/>
<path d="M446.736 782H492.276L485.796 820L440.044 820L446.736 782Z" fill="white"/>
<path d="M399.724 820L350.596 774.74L342.878 820L399.724 820Z" fill="white"/>
<path d="M315.878 820L322.609 782H213.929L207.415 820L315.878 820Z" fill="white"/>
<path d="M203.987 840H308.414L302.149 875.5H243.441L239.669 897.5H302.809L295.989 936H187.529L203.987 840Z" fill="white"/>
<path d="M193.1 820L199.726 782H66.6256L60 820L193.1 820Z" fill="white"/>
<path d="M99.4443 840H147.184L130.646 936H82.9056L99.4443 840Z" fill="white"/>
<path d="M339.467 840L482.385 840L464.776 943.26L380.736 866.04L368.636 936H323.096L339.467 840Z" fill="white"/>
<path d="M511.342 840L494.971 936H540.511L552.611 866.04L636.651 943.26L654.26 840L511.342 840Z" fill="white"/>
<path d="M683.303 840L666.846 936H715.686L732.143 840L683.303 840Z" fill="white"/>
<path d="M735.571 820L686.731 820L693.246 782H742.086L735.571 820Z" fill="white"/>
<path d="M766.462 840C766.641 840.697 766.84 841.384 767.059 842.06C768.819 847.34 771.386 852.107 774.759 856.36C778.279 860.467 782.166 864.06 786.419 867.14C790.819 870.074 795.219 872.494 799.619 874.4C804.899 876.454 809.446 878.36 813.259 880.12C817.219 881.734 820.152 883.42 822.059 885.18C823.966 886.94 824.552 889.214 823.819 892C823.379 894.2 822.279 896.034 820.519 897.5C818.906 898.82 816.926 899.847 814.579 900.58C812.379 901.167 810.106 901.46 807.759 901.46C803.066 901.46 798.812 900.434 794.999 898.38C791.186 896.327 787.812 893.467 784.879 889.8C781.946 886.134 779.379 882.027 777.179 877.48L742.199 900.8C744.986 909.014 749.386 916.274 755.399 922.58C761.412 928.887 768.599 933.727 776.959 937.1C785.466 940.62 794.779 942.454 804.899 942.6C815.606 942.6 825.872 940.62 835.699 936.66C845.672 932.847 854.106 927.2 860.999 919.72C868.039 912.094 872.366 902.707 873.979 891.56C875.006 883.934 874.419 877.04 872.219 870.88C870.166 864.574 866.646 859.074 861.659 854.38C856.672 849.54 850.366 845.727 842.739 842.94C840.146 841.903 837.266 840.923 834.099 840H766.462Z" fill="white"/>
<path d="M817.454 820L766.427 820C768.278 811.533 772.083 804.293 777.839 798.28C784.439 791.387 792.432 786.18 801.819 782.66C811.352 779.14 821.253 777.454 831.519 777.6C841.346 777.6 849.853 779.214 857.039 782.44C864.226 785.52 870.239 789.7 875.079 794.98C880.066 800.114 883.879 805.834 886.519 812.14L849.119 831.5C847.359 828.42 845.379 825.854 843.179 823.8C841.126 821.6 838.853 819.987 836.359 818.96C833.866 817.787 831.079 817.2 827.999 817.2C826.092 817.2 824.112 817.494 822.059 818.08C820.312 818.455 818.777 819.095 817.454 820Z" fill="white"/>
<path d="M657.671 820L611.919 820L618.611 782H664.151L657.671 820Z" fill="white"/>
<path d="M571.599 820L522.471 774.74L514.753 820L571.599 820Z" fill="white"/>
<path d="M86.5678 1053.8C86.5678 1059.7 87.8371 1064.96 90.3758 1069.59C92.9891 1074.22 96.5358 1077.88 101.016 1080.57C105.496 1083.26 110.573 1084.6 116.248 1084.6C121.997 1084.6 127.074 1083.26 131.48 1080.57C135.96 1077.88 139.469 1074.22 142.008 1069.59C144.621 1064.96 145.928 1059.7 145.928 1053.8C145.928 1047.9 144.621 1042.64 142.008 1038.01C139.469 1033.38 135.96 1029.72 131.48 1027.03C127.074 1024.34 121.997 1023 116.248 1023C110.573 1023 105.496 1024.34 101.016 1027.03C96.5358 1029.72 92.9891 1033.38 90.3758 1038.01C87.8371 1042.64 86.5678 1047.9 86.5678 1053.8ZM76.4878 1053.8C76.4878 1048.05 77.4585 1042.75 79.3998 1037.9C81.4158 1032.97 84.2158 1028.71 87.7998 1025.13C91.3838 1021.47 95.6025 1018.63 100.456 1016.62C105.309 1014.53 110.573 1013.48 116.248 1013.48C121.997 1013.48 127.261 1014.53 132.04 1016.62C136.893 1018.63 141.112 1021.47 144.696 1025.13C148.28 1028.71 151.042 1032.97 152.984 1037.9C155 1042.75 156.008 1048.05 156.008 1053.8C156.008 1059.47 155 1064.78 152.984 1069.7C151.042 1074.63 148.28 1078.93 144.696 1082.58C141.112 1086.17 136.893 1089.01 132.04 1091.1C127.261 1093.11 121.997 1094.12 116.248 1094.12C110.573 1094.12 105.309 1093.11 100.456 1091.1C95.6025 1089.01 91.3838 1086.17 87.7998 1082.58C84.2158 1078.93 81.4158 1074.63 79.3998 1069.7C77.4585 1064.78 76.4878 1059.47 76.4878 1053.8ZM201.932 1061.64C201.932 1057.38 200.999 1054.17 199.132 1052.01C197.266 1049.84 194.54 1048.76 190.956 1048.76C188.343 1048.76 186.028 1049.32 184.012 1050.44C182.071 1051.49 180.54 1052.98 179.42 1054.92C178.375 1056.86 177.852 1059.1 177.852 1061.64V1093H168.892V1041.48H177.852V1049.54C179.57 1046.41 181.698 1044.09 184.236 1042.6C186.85 1041.11 189.836 1040.36 193.196 1040.36C198.647 1040.36 202.94 1042.19 206.076 1045.85C209.287 1049.43 210.892 1054.32 210.892 1060.52V1093H201.932V1061.64ZM227.736 1005.64H236.696V1093H227.736V1005.64ZM253.548 1020.2C253.548 1018.48 254.146 1017.03 255.34 1015.83C256.61 1014.64 258.066 1014.04 259.708 1014.04C261.426 1014.04 262.882 1014.64 264.076 1015.83C265.271 1017.03 265.868 1018.48 265.868 1020.2C265.868 1021.84 265.271 1023.3 264.076 1024.57C262.882 1025.76 261.426 1026.36 259.708 1026.36C258.066 1026.36 256.61 1025.76 255.34 1024.57C254.146 1023.3 253.548 1021.84 253.548 1020.2ZM255.228 1041.48H264.188V1093H255.228V1041.48ZM315.682 1061.64C315.682 1057.38 314.749 1054.17 312.882 1052.01C311.016 1049.84 308.29 1048.76 304.706 1048.76C302.093 1048.76 299.778 1049.32 297.762 1050.44C295.821 1051.49 294.29 1052.98 293.17 1054.92C292.125 1056.86 291.602 1059.1 291.602 1061.64V1093H282.642V1041.48H291.602V1049.54C293.32 1046.41 295.448 1044.09 297.986 1042.6C300.6 1041.11 303.586 1040.36 306.946 1040.36C312.397 1040.36 316.69 1042.19 319.826 1045.85C323.037 1049.43 324.642 1054.32 324.642 1060.52V1093H315.682V1061.64ZM361.422 1094.12C356.643 1094.12 352.387 1093 348.654 1090.76C344.995 1088.45 342.121 1085.27 340.03 1081.24C338.014 1077.21 337.006 1072.54 337.006 1067.24C337.006 1061.86 338.051 1057.16 340.142 1053.13C342.307 1049.1 345.294 1045.96 349.102 1043.72C352.985 1041.48 357.465 1040.36 362.542 1040.36C367.619 1040.36 371.95 1041.44 375.534 1043.61C379.193 1045.7 381.993 1048.72 383.934 1052.68C385.875 1056.64 386.846 1061.34 386.846 1066.79C386.846 1067.31 386.809 1067.87 386.734 1068.47C386.734 1068.99 386.734 1069.33 386.734 1069.48H342.718V1061.86H379.678L376.094 1067.02C376.318 1066.64 376.542 1066.08 376.766 1065.34C376.99 1064.51 377.102 1063.84 377.102 1063.32C377.102 1060.26 376.467 1057.61 375.198 1055.37C374.003 1053.13 372.323 1051.37 370.158 1050.1C367.993 1048.83 365.454 1048.2 362.542 1048.2C359.107 1048.2 356.158 1048.95 353.694 1050.44C351.305 1051.86 349.438 1053.95 348.094 1056.71C346.825 1059.4 346.153 1062.72 346.078 1066.68C346.078 1070.71 346.713 1074.15 347.982 1076.98C349.251 1079.82 351.118 1081.99 353.582 1083.48C356.046 1084.97 359.033 1085.72 362.542 1085.72C366.051 1085.72 369.15 1084.97 371.838 1083.48C374.526 1081.91 376.803 1079.56 378.67 1076.42L385.95 1081.02C383.262 1085.35 379.865 1088.63 375.758 1090.87C371.726 1093.04 366.947 1094.12 361.422 1094.12ZM440.769 1069.48L444.129 1060.52H478.849L482.209 1069.48H440.769ZM461.265 1032.3L448.049 1063.43L447.153 1065.45L435.505 1093H424.865L461.265 1010.68L497.665 1093H487.025L475.601 1066.12L474.705 1063.88L461.265 1032.3ZM577.202 1060.52V1093H568.242V1061.64C568.242 1057.23 567.421 1053.99 565.778 1051.9C564.21 1049.81 561.746 1048.76 558.386 1048.76C555.922 1048.76 553.794 1049.28 552.002 1050.33C550.21 1051.3 548.829 1052.75 547.858 1054.7C546.888 1056.64 546.402 1058.95 546.402 1061.64V1093H537.442V1061.64C537.442 1057.23 536.621 1053.99 534.978 1051.9C533.41 1049.81 530.946 1048.76 527.586 1048.76C525.122 1048.76 522.994 1049.28 521.202 1050.33C519.41 1051.3 518.029 1052.75 517.058 1054.7C516.088 1056.64 515.602 1058.95 515.602 1061.64V1093H506.642V1041.48H515.602V1048.98C517.17 1046.07 519.112 1043.91 521.426 1042.49C523.816 1041.07 526.616 1040.36 529.826 1040.36C533.41 1040.36 536.472 1041.22 539.01 1042.94C541.624 1044.58 543.528 1046.93 544.722 1049.99C546.514 1046.78 548.754 1044.39 551.442 1042.82C554.13 1041.18 557.192 1040.36 560.626 1040.36C564.136 1040.36 567.122 1041.14 569.586 1042.71C572.05 1044.28 573.917 1046.59 575.186 1049.66C576.53 1052.64 577.202 1056.26 577.202 1060.52ZM598.065 1077.1C598.065 1079.04 598.513 1080.72 599.409 1082.14C600.379 1083.55 601.686 1084.64 603.329 1085.38C605.046 1086.06 606.987 1086.39 609.153 1086.39C611.915 1086.39 614.379 1085.83 616.545 1084.71C618.785 1083.59 620.539 1082.02 621.809 1080.01C623.153 1077.92 623.825 1075.53 623.825 1072.84L625.617 1079.56C625.617 1082.85 624.609 1085.57 622.593 1087.74C620.651 1089.9 618.225 1091.51 615.313 1092.55C612.475 1093.6 609.638 1094.12 606.801 1094.12C603.665 1094.12 600.715 1093.49 597.953 1092.22C595.265 1090.87 593.099 1088.97 591.457 1086.5C589.814 1084.04 588.993 1081.05 588.993 1077.54C588.993 1072.54 590.747 1068.55 594.257 1065.56C597.841 1062.5 602.806 1060.97 609.153 1060.97C612.886 1060.97 615.985 1061.42 618.449 1062.31C620.987 1063.13 623.003 1064.1 624.497 1065.22C625.99 1066.27 626.998 1067.13 627.521 1067.8V1073.06C624.907 1071.27 622.219 1070 619.457 1069.26C616.694 1068.43 613.745 1068.02 610.609 1068.02C607.697 1068.02 605.307 1068.4 603.441 1069.14C601.649 1069.89 600.305 1070.94 599.409 1072.28C598.513 1073.62 598.065 1075.23 598.065 1077.1ZM596.721 1053.35L592.353 1046.74C594.294 1045.33 596.945 1043.91 600.305 1042.49C603.739 1041.07 607.846 1040.36 612.625 1040.36C616.657 1040.36 620.166 1040.99 623.153 1042.26C626.214 1043.46 628.566 1045.21 630.209 1047.53C631.926 1049.84 632.785 1052.68 632.785 1056.04V1093H623.825V1057.27C623.825 1055.48 623.526 1054.02 622.929 1052.9C622.331 1051.71 621.473 1050.78 620.353 1050.1C619.307 1049.43 618.075 1048.95 616.657 1048.65C615.238 1048.35 613.745 1048.2 612.177 1048.2C609.638 1048.2 607.323 1048.5 605.233 1049.1C603.217 1049.69 601.499 1050.4 600.081 1051.22C598.662 1052.05 597.542 1052.75 596.721 1053.35ZM640.115 1041.48H665.875V1049.88H640.115V1041.48ZM648.515 1023.56H657.475V1093H648.515V1023.56ZM694.797 1094.12C690.018 1094.12 685.762 1093 682.029 1090.76C678.37 1088.45 675.496 1085.27 673.405 1081.24C671.389 1077.21 670.381 1072.54 670.381 1067.24C670.381 1061.86 671.426 1057.16 673.517 1053.13C675.682 1049.1 678.669 1045.96 682.477 1043.72C686.36 1041.48 690.84 1040.36 695.917 1040.36C700.994 1040.36 705.325 1041.44 708.909 1043.61C712.568 1045.7 715.368 1048.72 717.309 1052.68C719.25 1056.64 720.221 1061.34 720.221 1066.79C720.221 1067.31 720.184 1067.87 720.109 1068.47C720.109 1068.99 720.109 1069.33 720.109 1069.48H676.093V1061.86H713.053L709.469 1067.02C709.693 1066.64 709.917 1066.08 710.141 1065.34C710.365 1064.51 710.477 1063.84 710.477 1063.32C710.477 1060.26 709.842 1057.61 708.573 1055.37C707.378 1053.13 705.698 1051.37 703.533 1050.1C701.368 1048.83 698.829 1048.2 695.917 1048.2C692.482 1048.2 689.533 1048.95 687.069 1050.44C684.68 1051.86 682.813 1053.95 681.469 1056.71C680.2 1059.4 679.528 1062.72 679.453 1066.68C679.453 1070.71 680.088 1074.15 681.357 1076.98C682.626 1079.82 684.493 1081.99 686.957 1083.48C689.421 1084.97 692.408 1085.72 695.917 1085.72C699.426 1085.72 702.525 1084.97 705.213 1083.48C707.901 1081.91 710.178 1079.56 712.045 1076.42L719.325 1081.02C716.637 1085.35 713.24 1088.63 709.133 1090.87C705.101 1093.04 700.322 1094.12 694.797 1094.12ZM741.462 1072.84C741.462 1076.95 742.395 1080.12 744.262 1082.36C746.128 1084.6 748.854 1085.72 752.438 1085.72C755.051 1085.72 757.328 1085.2 759.27 1084.15C761.286 1083.03 762.816 1081.5 763.862 1079.56C764.982 1077.62 765.542 1075.38 765.542 1072.84V1041.48H774.502V1093H765.542V1084.94C763.824 1088 761.696 1090.31 759.158 1091.88C756.619 1093.37 753.632 1094.12 750.198 1094.12C744.822 1094.12 740.528 1092.29 737.318 1088.63C734.107 1084.97 732.502 1080.08 732.502 1073.96V1041.48H741.462V1072.84ZM800.305 1041.48V1093H791.345V1041.48H800.305ZM815.873 1051.34C814.679 1050.44 813.596 1049.81 812.625 1049.43C811.655 1048.98 810.423 1048.76 808.929 1048.76C806.689 1048.76 804.935 1049.32 803.665 1050.44C802.396 1051.56 801.5 1053.09 800.977 1055.03C800.529 1056.97 800.305 1059.18 800.305 1061.64H796.273C796.273 1057.53 796.983 1053.91 798.401 1050.78C799.895 1047.57 801.799 1045.03 804.113 1043.16C806.428 1041.29 808.78 1040.36 811.169 1040.36C813.036 1040.36 814.753 1040.62 816.321 1041.14C817.964 1041.59 819.457 1042.53 820.801 1043.94L815.873 1051.34ZM856.034 1023.56V1014.6H905.874V1023.56H885.714V1093H876.194V1023.56H856.034ZM924.156 1094.12C919.378 1094.12 915.122 1093 911.388 1090.76C907.73 1088.45 904.855 1085.27 902.764 1081.24C900.748 1077.21 899.74 1072.54 899.74 1067.24C899.74 1061.86 900.786 1057.16 902.876 1053.13C905.042 1049.1 908.028 1045.96 911.836 1043.72C915.719 1041.48 920.199 1040.36 925.276 1040.36C930.354 1040.36 934.684 1041.44 938.268 1043.61C941.927 1045.7 944.727 1048.72 946.668 1052.68C948.61 1056.64 949.58 1061.34 949.58 1066.79C949.58 1067.31 949.543 1067.87 949.468 1068.47C949.468 1068.99 949.468 1069.33 949.468 1069.48H905.452V1061.86H942.412L938.828 1067.02C939.052 1066.64 939.276 1066.08 939.5 1065.34C939.724 1064.51 939.836 1063.84 939.836 1063.32C939.836 1060.26 939.202 1057.61 937.932 1055.37C936.738 1053.13 935.058 1051.37 932.892 1050.1C930.727 1048.83 928.188 1048.2 925.276 1048.2C921.842 1048.2 918.892 1048.95 916.428 1050.44C914.039 1051.86 912.172 1053.95 910.828 1056.71C909.559 1059.4 908.887 1062.72 908.812 1066.68C908.812 1070.71 909.447 1074.15 910.716 1076.98C911.986 1079.82 913.852 1081.99 916.316 1083.48C918.78 1084.97 921.767 1085.72 925.276 1085.72C928.786 1085.72 931.884 1084.97 934.572 1083.48C937.26 1081.91 939.538 1079.56 941.404 1076.42L948.684 1081.02C945.996 1085.35 942.599 1088.63 938.492 1090.87C934.46 1093.04 929.682 1094.12 924.156 1094.12ZM994.901 1061.64C994.901 1057.38 993.968 1054.17 992.101 1052.01C990.234 1049.84 987.509 1048.76 983.925 1048.76C981.312 1048.76 978.997 1049.32 976.981 1050.44C975.04 1051.49 973.509 1052.98 972.389 1054.92C971.344 1056.86 970.821 1059.1 970.821 1061.64V1093H961.861V1041.48H970.821V1049.54C972.538 1046.41 974.666 1044.09 977.205 1042.6C979.818 1041.11 982.805 1040.36 986.165 1040.36C991.616 1040.36 995.909 1042.19 999.045 1045.85C1002.26 1049.43 1003.86 1054.32 1003.86 1060.52V1093H994.901V1061.64ZM1053.74 1061.64C1053.74 1057.38 1052.81 1054.17 1050.94 1052.01C1049.08 1049.84 1046.35 1048.76 1042.77 1048.76C1040.16 1048.76 1037.84 1049.32 1035.82 1050.44C1033.88 1051.49 1032.35 1052.98 1031.23 1054.92C1030.19 1056.86 1029.66 1059.1 1029.66 1061.64V1093H1020.7V1041.48H1029.66V1049.54C1031.38 1046.41 1033.51 1044.09 1036.05 1042.6C1038.66 1041.11 1041.65 1040.36 1045.01 1040.36C1050.46 1040.36 1054.75 1042.19 1057.89 1045.85C1061.1 1049.43 1062.7 1054.32 1062.7 1060.52V1093H1053.74V1061.64ZM1079.55 1020.2C1079.55 1018.48 1080.15 1017.03 1081.34 1015.83C1082.61 1014.64 1084.07 1014.04 1085.71 1014.04C1087.43 1014.04 1088.88 1014.64 1090.08 1015.83C1091.27 1017.03 1091.87 1018.48 1091.87 1020.2C1091.87 1021.84 1091.27 1023.3 1090.08 1024.57C1088.88 1025.76 1087.43 1026.36 1085.71 1026.36C1084.07 1026.36 1082.61 1025.76 1081.34 1024.57C1080.15 1023.3 1079.55 1021.84 1079.55 1020.2ZM1081.23 1041.48H1090.19V1093H1081.23V1041.48ZM1110.77 1077.21C1111.82 1078.78 1113.01 1080.23 1114.35 1081.58C1115.7 1082.92 1117.23 1084 1118.95 1084.82C1120.74 1085.57 1122.68 1085.94 1124.77 1085.94C1127.31 1085.94 1129.29 1085.38 1130.71 1084.26C1132.2 1083.07 1132.95 1081.46 1132.95 1079.45C1132.95 1077.66 1132.35 1076.16 1131.15 1074.97C1130.03 1073.7 1128.58 1072.65 1126.79 1071.83C1124.99 1070.94 1123.09 1070.11 1121.07 1069.37C1118.83 1068.47 1116.56 1067.43 1114.24 1066.23C1112 1064.96 1110.1 1063.36 1108.53 1061.42C1107.04 1059.4 1106.29 1056.9 1106.29 1053.91C1106.29 1050.85 1107.07 1048.31 1108.64 1046.3C1110.28 1044.28 1112.38 1042.79 1114.91 1041.82C1117.53 1040.85 1120.22 1040.36 1122.98 1040.36C1125.74 1040.36 1128.32 1040.81 1130.71 1041.7C1133.17 1042.6 1135.34 1043.79 1137.2 1045.29C1139.07 1046.78 1140.52 1048.5 1141.57 1050.44L1134.4 1055.03C1132.98 1053.09 1131.19 1051.49 1129.03 1050.22C1126.94 1048.95 1124.55 1048.31 1121.86 1048.31C1119.99 1048.31 1118.39 1048.72 1117.04 1049.54C1115.7 1050.37 1115.03 1051.63 1115.03 1053.35C1115.03 1054.7 1115.55 1055.89 1116.59 1056.94C1117.64 1057.98 1118.98 1058.91 1120.63 1059.74C1122.27 1060.56 1123.99 1061.34 1125.78 1062.09C1128.76 1063.28 1131.49 1064.59 1133.95 1066.01C1136.42 1067.35 1138.36 1068.99 1139.78 1070.94C1141.27 1072.88 1142.02 1075.38 1142.02 1078.44C1142.02 1082.92 1140.38 1086.65 1137.09 1089.64C1133.88 1092.63 1129.62 1094.12 1124.32 1094.12C1120.89 1094.12 1117.79 1093.52 1115.03 1092.33C1112.26 1091.06 1109.91 1089.45 1107.97 1087.51C1106.1 1085.57 1104.68 1083.59 1103.71 1081.58L1110.77 1077.21ZM1180.11 1023.56V1014.6H1229.95V1023.56H1209.79V1093H1200.27V1023.56H1180.11ZM1223.82 1067.24C1223.82 1062.01 1224.98 1057.38 1227.29 1053.35C1229.68 1049.32 1232.89 1046.15 1236.92 1043.83C1240.95 1041.52 1245.47 1040.36 1250.47 1040.36C1255.55 1040.36 1260.07 1041.52 1264.03 1043.83C1268.06 1046.15 1271.23 1049.32 1273.55 1053.35C1275.94 1057.38 1277.13 1062.01 1277.13 1067.24C1277.13 1072.39 1275.94 1077.02 1273.55 1081.13C1271.23 1085.16 1268.06 1088.33 1264.03 1090.65C1260.07 1092.96 1255.55 1094.12 1250.47 1094.12C1245.47 1094.12 1240.95 1092.96 1236.92 1090.65C1232.89 1088.33 1229.68 1085.16 1227.29 1081.13C1224.98 1077.02 1223.82 1072.39 1223.82 1067.24ZM1232.89 1067.24C1232.89 1070.82 1233.64 1074 1235.13 1076.76C1236.7 1079.52 1238.79 1081.73 1241.4 1083.37C1244.09 1084.94 1247.11 1085.72 1250.47 1085.72C1253.83 1085.72 1256.82 1084.94 1259.43 1083.37C1262.12 1081.73 1264.21 1079.52 1265.71 1076.76C1267.27 1074 1268.06 1070.82 1268.06 1067.24C1268.06 1063.66 1267.27 1060.48 1265.71 1057.72C1264.21 1054.88 1262.12 1052.68 1259.43 1051.11C1256.82 1049.54 1253.83 1048.76 1250.47 1048.76C1247.11 1048.76 1244.09 1049.54 1241.4 1051.11C1238.79 1052.68 1236.7 1054.88 1235.13 1057.72C1233.64 1060.48 1232.89 1063.66 1232.89 1067.24ZM1298.4 1072.84C1298.4 1076.95 1299.33 1080.12 1301.2 1082.36C1303.07 1084.6 1305.79 1085.72 1309.38 1085.72C1311.99 1085.72 1314.27 1085.2 1316.21 1084.15C1318.22 1083.03 1319.75 1081.5 1320.8 1079.56C1321.92 1077.62 1322.48 1075.38 1322.48 1072.84V1041.48H1331.44V1093H1322.48V1084.94C1320.76 1088 1318.63 1090.31 1316.1 1091.88C1313.56 1093.37 1310.57 1094.12 1307.14 1094.12C1301.76 1094.12 1297.47 1092.29 1294.26 1088.63C1291.04 1084.97 1289.44 1080.08 1289.44 1073.96V1041.48H1298.4V1072.84ZM1357.24 1041.48V1093H1348.28V1041.48H1357.24ZM1372.81 1051.34C1371.62 1050.44 1370.53 1049.81 1369.56 1049.43C1368.59 1048.98 1367.36 1048.76 1365.87 1048.76C1363.63 1048.76 1361.87 1049.32 1360.6 1050.44C1359.33 1051.56 1358.44 1053.09 1357.91 1055.03C1357.47 1056.97 1357.24 1059.18 1357.24 1061.64H1353.21C1353.21 1057.53 1353.92 1053.91 1355.34 1050.78C1356.83 1047.57 1358.74 1045.03 1361.05 1043.16C1363.37 1041.29 1365.72 1040.36 1368.11 1040.36C1369.97 1040.36 1371.69 1040.62 1373.26 1041.14C1374.9 1041.59 1376.39 1042.53 1377.74 1043.94L1372.81 1051.34ZM1419.71 1061.64C1419.71 1057.38 1418.78 1054.17 1416.91 1052.01C1415.05 1049.84 1412.32 1048.76 1408.74 1048.76C1406.12 1048.76 1403.81 1049.32 1401.79 1050.44C1399.85 1051.49 1398.32 1052.98 1397.2 1054.92C1396.16 1056.86 1395.63 1059.1 1395.63 1061.64V1093H1386.67V1041.48H1395.63V1049.54C1397.35 1046.41 1399.48 1044.09 1402.02 1042.6C1404.63 1041.11 1407.62 1040.36 1410.98 1040.36C1416.43 1040.36 1420.72 1042.19 1423.86 1045.85C1427.07 1049.43 1428.67 1054.32 1428.67 1060.52V1093H1419.71V1061.64ZM1449.55 1077.1C1449.55 1079.04 1450 1080.72 1450.89 1082.14C1451.86 1083.55 1453.17 1084.64 1454.81 1085.38C1456.53 1086.06 1458.47 1086.39 1460.64 1086.39C1463.4 1086.39 1465.86 1085.83 1468.03 1084.71C1470.27 1083.59 1472.02 1082.02 1473.29 1080.01C1474.64 1077.92 1475.31 1075.53 1475.31 1072.84L1477.1 1079.56C1477.1 1082.85 1476.09 1085.57 1474.08 1087.74C1472.14 1089.9 1469.71 1091.51 1466.8 1092.55C1463.96 1093.6 1461.12 1094.12 1458.29 1094.12C1455.15 1094.12 1452.2 1093.49 1449.44 1092.22C1446.75 1090.87 1444.58 1088.97 1442.94 1086.5C1441.3 1084.04 1440.48 1081.05 1440.48 1077.54C1440.48 1072.54 1442.23 1068.55 1445.74 1065.56C1449.33 1062.5 1454.29 1060.97 1460.64 1060.97C1464.37 1060.97 1467.47 1061.42 1469.93 1062.31C1472.47 1063.13 1474.49 1064.1 1475.98 1065.22C1477.47 1066.27 1478.48 1067.13 1479.01 1067.8V1073.06C1476.39 1071.27 1473.7 1070 1470.94 1069.26C1468.18 1068.43 1465.23 1068.02 1462.09 1068.02C1459.18 1068.02 1456.79 1068.4 1454.93 1069.14C1453.13 1069.89 1451.79 1070.94 1450.89 1072.28C1450 1073.62 1449.55 1075.23 1449.55 1077.1ZM1448.21 1053.35L1443.84 1046.74C1445.78 1045.33 1448.43 1043.91 1451.79 1042.49C1455.22 1041.07 1459.33 1040.36 1464.11 1040.36C1468.14 1040.36 1471.65 1040.99 1474.64 1042.26C1477.7 1043.46 1480.05 1045.21 1481.69 1047.53C1483.41 1049.84 1484.27 1052.68 1484.27 1056.04V1093H1475.31V1057.27C1475.31 1055.48 1475.01 1054.02 1474.41 1052.9C1473.82 1051.71 1472.96 1050.78 1471.84 1050.1C1470.79 1049.43 1469.56 1048.95 1468.14 1048.65C1466.72 1048.35 1465.23 1048.2 1463.66 1048.2C1461.12 1048.2 1458.81 1048.5 1456.72 1049.1C1454.7 1049.69 1452.98 1050.4 1451.57 1051.22C1450.15 1052.05 1449.03 1052.75 1448.21 1053.35ZM1570 1060.52V1093H1561.04V1061.64C1561.04 1057.23 1560.22 1053.99 1558.58 1051.9C1557.01 1049.81 1554.54 1048.76 1551.18 1048.76C1548.72 1048.76 1546.59 1049.28 1544.8 1050.33C1543.01 1051.3 1541.63 1052.75 1540.66 1054.7C1539.68 1056.64 1539.2 1058.95 1539.2 1061.64V1093H1530.24V1061.64C1530.24 1057.23 1529.42 1053.99 1527.78 1051.9C1526.21 1049.81 1523.74 1048.76 1520.38 1048.76C1517.92 1048.76 1515.79 1049.28 1514 1050.33C1512.21 1051.3 1510.83 1052.75 1509.86 1054.7C1508.88 1056.64 1508.4 1058.95 1508.4 1061.64V1093H1499.44V1041.48H1508.4V1048.98C1509.97 1046.07 1511.91 1043.91 1514.22 1042.49C1516.61 1041.07 1519.41 1040.36 1522.62 1040.36C1526.21 1040.36 1529.27 1041.22 1531.81 1042.94C1534.42 1044.58 1536.32 1046.93 1537.52 1049.99C1539.31 1046.78 1541.55 1044.39 1544.24 1042.82C1546.93 1041.18 1549.99 1040.36 1553.42 1040.36C1556.93 1040.36 1559.92 1041.14 1562.38 1042.71C1564.85 1044.28 1566.71 1046.59 1567.98 1049.66C1569.33 1052.64 1570 1056.26 1570 1060.52ZM1606.77 1094.12C1601.99 1094.12 1597.73 1093 1594 1090.76C1590.34 1088.45 1587.46 1085.27 1585.37 1081.24C1583.36 1077.21 1582.35 1072.54 1582.35 1067.24C1582.35 1061.86 1583.4 1057.16 1585.49 1053.13C1587.65 1049.1 1590.64 1045.96 1594.45 1043.72C1598.33 1041.48 1602.81 1040.36 1607.89 1040.36C1612.96 1040.36 1617.29 1041.44 1620.88 1043.61C1624.54 1045.7 1627.34 1048.72 1629.28 1052.68C1631.22 1056.64 1632.19 1061.34 1632.19 1066.79C1632.19 1067.31 1632.15 1067.87 1632.08 1068.47C1632.08 1068.99 1632.08 1069.33 1632.08 1069.48H1588.06V1061.86H1625.02L1621.44 1067.02C1621.66 1066.64 1621.89 1066.08 1622.11 1065.34C1622.33 1064.51 1622.45 1063.84 1622.45 1063.32C1622.45 1060.26 1621.81 1057.61 1620.54 1055.37C1619.35 1053.13 1617.67 1051.37 1615.5 1050.1C1613.34 1048.83 1610.8 1048.2 1607.89 1048.2C1604.45 1048.2 1601.5 1048.95 1599.04 1050.44C1596.65 1051.86 1594.78 1053.95 1593.44 1056.71C1592.17 1059.4 1591.5 1062.72 1591.42 1066.68C1591.42 1070.71 1592.06 1074.15 1593.33 1076.98C1594.6 1079.82 1596.46 1081.99 1598.93 1083.48C1601.39 1084.97 1604.38 1085.72 1607.89 1085.72C1611.4 1085.72 1614.49 1084.97 1617.18 1083.48C1619.87 1081.91 1622.15 1079.56 1624.01 1076.42L1631.29 1081.02C1628.61 1085.35 1625.21 1088.63 1621.1 1090.87C1617.07 1093.04 1612.29 1094.12 1606.77 1094.12ZM1677.51 1061.64C1677.51 1057.38 1676.58 1054.17 1674.71 1052.01C1672.84 1049.84 1670.12 1048.76 1666.53 1048.76C1663.92 1048.76 1661.61 1049.32 1659.59 1050.44C1657.65 1051.49 1656.12 1052.98 1655 1054.92C1653.95 1056.86 1653.43 1059.1 1653.43 1061.64V1093H1644.47V1041.48H1653.43V1049.54C1655.15 1046.41 1657.28 1044.09 1659.81 1042.6C1662.43 1041.11 1665.41 1040.36 1668.77 1040.36C1674.22 1040.36 1678.52 1042.19 1681.65 1045.85C1684.86 1049.43 1686.47 1054.32 1686.47 1060.52V1093H1677.51V1061.64ZM1695.47 1041.48H1721.23V1049.88H1695.47V1041.48ZM1703.87 1023.56H1712.83V1093H1703.87V1023.56ZM1732.35 1077.21C1733.39 1078.78 1734.59 1080.23 1735.93 1081.58C1737.28 1082.92 1738.81 1084 1740.52 1084.82C1742.32 1085.57 1744.26 1085.94 1746.35 1085.94C1748.89 1085.94 1750.87 1085.38 1752.28 1084.26C1753.78 1083.07 1754.52 1081.46 1754.52 1079.45C1754.52 1077.66 1753.93 1076.16 1752.73 1074.97C1751.61 1073.7 1750.16 1072.65 1748.36 1071.83C1746.57 1070.94 1744.67 1070.11 1742.65 1069.37C1740.41 1068.47 1738.13 1067.43 1735.82 1066.23C1733.58 1064.96 1731.68 1063.36 1730.11 1061.42C1728.61 1059.4 1727.87 1056.9 1727.87 1053.91C1727.87 1050.85 1728.65 1048.31 1730.22 1046.3C1731.86 1044.28 1733.95 1042.79 1736.49 1041.82C1739.11 1040.85 1741.79 1040.36 1744.56 1040.36C1747.32 1040.36 1749.89 1040.81 1752.28 1041.7C1754.75 1042.6 1756.91 1043.79 1758.78 1045.29C1760.65 1046.78 1762.1 1048.5 1763.15 1050.44L1755.98 1055.03C1754.56 1053.09 1752.77 1051.49 1750.6 1050.22C1748.51 1048.95 1746.12 1048.31 1743.44 1048.31C1741.57 1048.31 1739.96 1048.72 1738.62 1049.54C1737.28 1050.37 1736.6 1051.63 1736.6 1053.35C1736.6 1054.7 1737.13 1055.89 1738.17 1056.94C1739.22 1057.98 1740.56 1058.91 1742.2 1059.74C1743.85 1060.56 1745.56 1061.34 1747.36 1062.09C1750.34 1063.28 1753.07 1064.59 1755.53 1066.01C1758 1067.35 1759.94 1068.99 1761.36 1070.94C1762.85 1072.88 1763.6 1075.38 1763.6 1078.44C1763.6 1082.92 1761.95 1086.65 1758.67 1089.64C1755.46 1092.63 1751.2 1094.12 1745.9 1094.12C1742.47 1094.12 1739.37 1093.52 1736.6 1092.33C1733.84 1091.06 1731.49 1089.45 1729.55 1087.51C1727.68 1085.57 1726.26 1083.59 1725.29 1081.58L1732.35 1077.21Z" fill="white"/>
</svg>
