<svg width="5452" height="1565" viewBox="0 0 5452 1565" fill="none" xmlns="http://www.w3.org/2000/svg">
<g clip-path="url(#clip0_2034_192)">
<rect width="5452" height="1565" rx="70" fill="#1E2022"/>
<path d="M1336.36 1106.55H1349.64V1211.45C1349.6 1220.92 1347.89 1228.82 1344.53 1235.17C1341.17 1241.46 1336.53 1246.18 1330.61 1249.3C1324.69 1252.43 1317.9 1253.99 1310.23 1253.99C1302.7 1253.99 1295.97 1252.59 1290.05 1249.8C1284.14 1247 1279.47 1243.07 1276.06 1238.01C1272.7 1232.94 1271.02 1227 1271.02 1220.18H1284.09C1284.09 1224.49 1285.23 1228.3 1287.5 1231.62C1289.77 1234.88 1292.87 1237.44 1296.8 1239.29C1300.78 1241.13 1305.25 1242.06 1310.23 1242.06C1315.39 1242.06 1319.91 1240.97 1323.79 1238.79C1327.72 1236.61 1330.8 1233.27 1333.02 1228.78C1335.25 1224.23 1336.36 1218.45 1336.36 1211.45V1106.55ZM1631.53 1179.27C1631.53 1194.42 1628.83 1207.61 1623.43 1218.83C1618.03 1230.01 1610.6 1238.67 1601.13 1244.83C1591.71 1250.93 1580.86 1253.99 1568.6 1253.99C1556.34 1253.99 1545.47 1250.93 1536 1244.83C1526.58 1238.67 1519.17 1230.01 1513.77 1218.83C1508.42 1207.61 1505.75 1194.42 1505.75 1179.27C1505.75 1164.12 1508.42 1150.96 1513.77 1139.78C1519.17 1128.56 1526.6 1119.9 1536.07 1113.79C1545.54 1107.63 1556.38 1104.56 1568.6 1104.56C1580.86 1104.56 1591.71 1107.63 1601.13 1113.79C1610.6 1119.9 1618.03 1128.56 1623.43 1139.78C1628.83 1150.96 1631.53 1164.12 1631.53 1179.27ZM1618.6 1179.27C1618.6 1166.25 1616.42 1155.1 1612.07 1145.82C1607.71 1136.49 1601.77 1129.37 1594.24 1124.44C1586.71 1119.52 1578.16 1117.06 1568.6 1117.06C1559.08 1117.06 1550.56 1119.52 1543.03 1124.44C1535.5 1129.37 1529.54 1136.47 1525.13 1145.75C1520.78 1155.03 1518.6 1166.2 1518.6 1179.27C1518.6 1192.29 1520.78 1203.44 1525.13 1212.72C1529.49 1222 1535.43 1229.13 1542.96 1234.1C1550.49 1239.03 1559.04 1241.49 1568.6 1241.49C1578.16 1241.49 1586.71 1239.03 1594.24 1234.1C1601.82 1229.18 1607.78 1222.08 1612.14 1212.8C1616.49 1203.47 1618.65 1192.29 1618.6 1179.27ZM1800.93 1106.55V1252H1787.65V1106.55H1800.93ZM2076.88 1106.55V1252H2063.95L1978.02 1130.2H1976.88V1252H1963.6V1106.55H1976.45L2062.68 1228.49H2063.81V1106.55H2076.88ZM2420.02 1252H2406.1L2459.01 1106.55H2473.21L2526.12 1252H2512.2L2466.61 1123.8H2465.61L2420.02 1252ZM2430.03 1196.25H2502.19V1208.18H2430.03V1196.25ZM2788.33 1106.55V1252H2775.41L2689.47 1130.2H2688.33V1252H2675.05V1106.55H2687.91L2774.13 1228.49H2775.27V1106.55H2788.33ZM2993.62 1252H2951.01V1106.55H2996.18C3010.05 1106.55 3021.91 1109.43 3031.76 1115.21C3041.65 1120.99 3049.23 1129.27 3054.49 1140.07C3059.74 1150.86 3062.37 1163.81 3062.37 1178.92C3062.37 1194.16 3059.67 1207.26 3054.27 1218.19C3048.92 1229.08 3041.11 1237.44 3030.84 1243.26C3020.61 1249.09 3008.2 1252 2993.62 1252ZM2964.29 1240.07H2992.84C3005.34 1240.07 3015.8 1237.61 3024.23 1232.68C3032.66 1227.76 3038.98 1220.73 3043.19 1211.59C3047.41 1202.45 3049.51 1191.56 3049.51 1178.92C3049.47 1166.37 3047.38 1155.57 3043.26 1146.53C3039.19 1137.49 3033.13 1130.55 3025.08 1125.72C3017.08 1120.89 3007.18 1118.48 2995.39 1118.48H2964.29V1240.07ZM3398.81 1252V1106.55H3445.76C3456.08 1106.55 3464.7 1108.53 3471.61 1112.51C3478.57 1116.44 3483.8 1121.79 3487.3 1128.56C3490.86 1135.33 3492.63 1142.96 3492.63 1151.43C3492.63 1159.91 3490.88 1167.55 3487.38 1174.37C3483.87 1181.14 3478.66 1186.52 3471.75 1190.49C3464.84 1194.42 3456.24 1196.39 3445.97 1196.39H3409.04V1184.46H3445.61C3453.24 1184.46 3459.56 1183.04 3464.58 1180.2C3469.6 1177.31 3473.34 1173.38 3475.8 1168.41C3478.31 1163.43 3479.56 1157.78 3479.56 1151.43C3479.56 1145.09 3478.31 1139.43 3475.8 1134.46C3473.34 1129.49 3469.57 1125.58 3464.51 1122.74C3459.49 1119.9 3453.12 1118.48 3445.4 1118.48H3412.09V1252H3398.81ZM3647.81 1252V1106.55H3661.09V1240.07H3730.41V1252H3647.81ZM3893.7 1252H3879.78L3932.69 1106.55H3946.9L3999.81 1252H3985.89L3940.29 1123.8H3939.3L3893.7 1252ZM3903.72 1196.25H3975.88V1208.18H3903.72V1196.25ZM4120.26 1106.55H4135.6L4178.71 1175.58H4179.99L4223.1 1106.55H4238.44L4185.96 1189V1252H4172.75V1189L4120.26 1106.55Z" fill="url(#paint0_linear_2034_192)"/>
<path d="M311.905 479.08H545.025V544.88H460.895V825H392.745V544.88H311.905V479.08ZM610.796 479.08H846.736V544.88H678.946V618.67H827.466V684.47H678.946V759.2H853.316V825H610.796V479.08ZM1233.55 839.1L971.293 602.22L991.503 613.5L992.913 825H923.823V465.45H926.643L1183.26 701.39L1168.22 694.81L1166.81 479.08H1235.43V839.1H1233.55ZM1634.25 839.1L1371.99 602.22L1392.2 613.5L1393.61 825H1324.52V465.45H1327.34L1583.96 701.39L1568.92 694.81L1567.51 479.08H1636.13V839.1H1634.25ZM1725.21 479.08H1793.36V825H1725.21V479.08ZM2067.35 562.74C2054.19 555.533 2040.72 549.58 2026.93 544.88C2013.46 540.18 2000.77 537.83 1988.86 537.83C1974.13 537.83 1962.54 540.807 1954.08 546.76C1945.62 552.713 1941.39 561.643 1941.39 573.55C1941.39 581.697 1944.52 589.06 1950.79 595.64C1957.37 601.907 1965.67 607.547 1975.7 612.56C1986.04 617.573 1996.69 622.117 2007.66 626.19C2017.69 629.95 2027.56 634.493 2037.27 639.82C2047.3 644.833 2056.23 651.257 2064.06 659.09C2071.89 666.61 2078.16 676.167 2082.86 687.76C2087.56 699.04 2089.91 712.983 2089.91 729.59C2089.91 747.137 2085.37 763.43 2076.28 778.47C2067.19 793.51 2053.88 805.73 2036.33 815.13C2018.78 824.217 1997.16 828.76 1971.47 828.76C1958.31 828.76 1944.84 827.507 1931.05 825C1917.58 822.18 1904.26 818.107 1891.1 812.78C1877.94 807.14 1865.25 800.09 1853.03 791.63L1883.11 738.52C1891.26 744.473 1900.03 749.8 1909.43 754.5C1919.14 758.887 1928.86 762.333 1938.57 764.84C1948.28 767.347 1957.21 768.6 1965.36 768.6C1973.51 768.6 1981.65 767.503 1989.8 765.31C1998.26 762.803 2005.15 758.73 2010.48 753.09C2016.12 747.45 2018.94 739.617 2018.94 729.59C2018.94 722.697 2016.59 716.43 2011.89 710.79C2007.5 705.15 2001.39 699.98 1993.56 695.28C1986.04 690.58 1977.74 686.507 1968.65 683.06C1958 678.987 1947.03 674.287 1935.75 668.96C1924.47 663.633 1913.82 657.21 1903.79 649.69C1894.08 641.857 1886.09 632.3 1879.82 621.02C1873.87 609.427 1870.89 595.327 1870.89 578.72C1870.89 558.667 1875.28 541.277 1884.05 526.55C1893.14 511.823 1905.83 500.23 1922.12 491.77C1938.41 482.997 1957.21 478.14 1978.52 477.2C2006.41 477.2 2028.97 480.49 2046.2 487.07C2063.75 493.65 2079.41 501.483 2093.2 510.57L2067.35 562.74Z" fill="white"/>
<path d="M3466.81 479.08C3488.43 479.08 3507.7 481.9 3524.62 487.54C3541.54 492.867 3555.64 500.7 3566.92 511.04C3578.51 521.067 3587.29 533.287 3593.24 547.7C3599.19 561.8 3602.17 577.78 3602.17 595.64C3602.17 609.74 3599.98 623.84 3595.59 637.94C3591.52 652.04 3584.62 664.887 3574.91 676.48C3565.51 688.073 3552.98 697.473 3537.31 704.68C3521.64 711.573 3502.22 715.02 3479.03 715.02H3430.15V825H3362V479.08H3466.81ZM3478.56 649.22C3488.9 649.22 3497.52 647.497 3504.41 644.05C3511.3 640.603 3516.63 636.217 3520.39 630.89C3524.46 625.563 3527.28 620.08 3528.85 614.44C3530.73 608.487 3531.67 603.003 3531.67 597.99C3531.67 594.23 3531.04 589.53 3529.79 583.89C3528.85 577.937 3526.66 571.983 3523.21 566.03C3519.76 560.077 3514.44 555.063 3507.23 550.99C3500.34 546.917 3490.94 544.88 3479.03 544.88H3430.15V649.22H3478.56ZM3542.48 691.52L3628.02 825H3548.59L3461.17 693.4L3542.48 691.52ZM3717.11 479.08H3785.26V825H3717.11V479.08ZM3959.61 479.08L4060.66 728.18L4021.18 720.19L4112.83 479.08H4193.67L4035.75 840.98L3877.83 479.08H3959.61ZM4200.13 825L4356.17 465.45H4359.93L4515.97 825H4437.01L4337.37 572.14L4386.72 538.3L4267.34 825H4200.13ZM4306.82 699.98H4410.69L4434.66 757.32H4285.67L4306.82 699.98ZM4599.29 479.08H4667.44V759.2H4830.06V825H4599.29V479.08ZM5118 562.74C5104.84 555.533 5091.36 549.58 5077.58 544.88C5064.1 540.18 5051.41 537.83 5039.51 537.83C5024.78 537.83 5013.19 540.807 5004.73 546.76C4996.27 552.713 4992.04 561.643 4992.04 573.55C4992.04 581.697 4995.17 589.06 5001.44 595.64C5008.02 601.907 5016.32 607.547 5026.35 612.56C5036.69 617.573 5047.34 622.117 5058.31 626.19C5068.33 629.95 5078.2 634.493 5087.92 639.82C5097.94 644.833 5106.87 651.257 5114.71 659.09C5122.54 666.61 5128.81 676.167 5133.51 687.76C5138.21 699.04 5140.56 712.983 5140.56 729.59C5140.56 747.137 5136.01 763.43 5126.93 778.47C5117.84 793.51 5104.52 805.73 5086.98 815.13C5069.43 824.217 5047.81 828.76 5022.12 828.76C5008.96 828.76 4995.48 827.507 4981.7 825C4968.22 822.18 4954.91 818.107 4941.75 812.78C4928.59 807.14 4915.9 800.09 4903.68 791.63L4933.76 738.52C4941.9 744.473 4950.68 749.8 4960.08 754.5C4969.79 758.887 4979.5 762.333 4989.22 764.84C4998.93 767.347 5007.86 768.6 5016.01 768.6C5024.15 768.6 5032.3 767.503 5040.45 765.31C5048.91 762.803 5055.8 758.73 5061.13 753.09C5066.77 747.45 5069.59 739.617 5069.59 729.59C5069.59 722.697 5067.24 716.43 5062.54 710.79C5058.15 705.15 5052.04 699.98 5044.21 695.28C5036.69 690.58 5028.38 686.507 5019.3 683.06C5008.64 678.987 4997.68 674.287 4986.4 668.96C4975.12 663.633 4964.46 657.21 4954.44 649.69C4944.72 641.857 4936.73 632.3 4930.47 621.02C4924.51 609.427 4921.54 595.327 4921.54 578.72C4921.54 558.667 4925.92 541.277 4934.7 526.55C4943.78 511.823 4956.47 500.23 4972.77 491.77C4989.06 482.997 5007.86 478.14 5029.17 477.2C5057.05 477.2 5079.61 480.49 5096.85 487.07C5114.39 493.65 5130.06 501.483 5143.85 510.57L5118 562.74Z" fill="white"/>
<path d="M2726.38 635.952C2726.38 635.947 2726.38 635.939 2726.38 635.935C2726.39 635.93 2726.4 635.93 2726.4 635.935L2726.48 636.017C2726.49 636.022 2726.49 636.029 2726.48 636.034C2726.48 636.039 2726.47 636.039 2726.47 636.034L2726.38 635.952Z" fill="url(#paint1_linear_2034_192)"/>
<path d="M2963.15 824.301C2971.54 832.689 2985.39 831.983 2992.2 822.269C3005.76 802.921 3017.2 782.105 3026.29 760.172C3042.6 720.786 3051 678.574 3051 635.943C3051 593.313 3042.6 551.1 3026.29 511.715C3017.41 490.279 3006.28 469.909 2993.12 450.935C2986.34 441.157 2972.43 440.416 2964.02 448.83L2789.97 622.879C2782.17 630.678 2782.17 643.322 2789.97 651.12L2963.15 824.301Z" fill="url(#paint2_linear_2034_192)"/>
<path d="M2725.95 636.616C2725.95 636.62 2725.94 636.62 2725.93 636.616C2725.93 636.611 2725.93 636.603 2725.93 636.598L2726.02 636.516C2726.02 636.511 2726.03 636.511 2726.03 636.516C2726.04 636.521 2726.04 636.529 2726.03 636.533L2725.95 636.616Z" fill="url(#paint3_linear_2034_192)"/>
<path d="M2914.3 399.849C2922.69 391.461 2921.98 377.607 2912.27 370.798C2892.92 357.237 2872.1 345.795 2850.17 336.711C2810.79 320.397 2768.57 312 2725.94 312C2683.31 312 2641.1 320.397 2601.71 336.711C2580.28 345.59 2559.91 356.719 2540.93 369.879C2531.16 376.661 2530.42 390.566 2538.83 398.98L2712.88 573.029C2720.68 580.828 2733.32 580.828 2741.12 573.029L2914.3 399.849Z" fill="url(#paint4_linear_2034_192)"/>
<path d="M2726.62 637.179C2726.62 637.184 2726.62 637.191 2726.62 637.196C2726.61 637.201 2726.6 637.201 2726.6 637.196L2726.52 637.114C2726.51 637.109 2726.51 637.101 2726.52 637.097C2726.52 637.092 2726.53 637.092 2726.53 637.097L2726.62 637.179Z" fill="url(#paint5_linear_2034_192)"/>
<path d="M2489.85 448.83C2481.46 440.442 2467.61 441.148 2460.8 450.862C2447.24 470.209 2435.8 491.026 2426.71 512.959C2410.4 552.344 2402 594.557 2402 637.188C2402 679.818 2410.4 722.031 2426.71 761.416C2435.59 782.852 2446.72 803.222 2459.88 822.196C2466.66 831.974 2480.57 832.715 2488.98 824.301L2663.03 650.252C2670.83 642.453 2670.83 629.809 2663.03 622.011L2489.85 448.83Z" fill="url(#paint6_linear_2034_192)"/>
<path d="M2727.18 636.384C2727.18 636.38 2727.19 636.38 2727.2 636.384C2727.2 636.389 2727.2 636.397 2727.2 636.402L2727.11 636.484C2727.11 636.489 2727.1 636.489 2727.1 636.484C2727.09 636.479 2727.09 636.472 2727.1 636.467L2727.18 636.384Z" fill="url(#paint7_linear_2034_192)"/>
<path d="M2538.83 873.151C2530.44 881.539 2531.15 895.393 2540.86 902.202C2560.21 915.763 2581.03 927.205 2602.96 936.289C2642.34 952.603 2684.56 961 2727.19 961C2769.82 961 2812.03 952.603 2851.42 936.289C2872.85 927.41 2893.22 916.281 2912.2 903.121C2921.97 896.339 2922.71 882.434 2914.3 874.02L2740.25 699.971C2732.45 692.172 2719.81 692.172 2712.01 699.971L2538.83 873.151Z" fill="url(#paint8_linear_2034_192)"/>
</g>
<defs>
<linearGradient id="paint0_linear_2034_192" x1="111.844" y1="1218.95" x2="5411.23" y2="1218.94" gradientUnits="userSpaceOnUse">
<stop offset="0.165309" stop-color="#00FF90"/>
<stop offset="0.830273" stop-color="#00A1FF"/>
</linearGradient>
<linearGradient id="paint1_linear_2034_192" x1="2235.91" y1="636.381" x2="3220.26" y2="636.381" gradientUnits="userSpaceOnUse">
<stop offset="0.165309" stop-color="#00FF90"/>
<stop offset="0.830273" stop-color="#00A1FF"/>
</linearGradient>
<linearGradient id="paint2_linear_2034_192" x1="2235.91" y1="636.381" x2="3220.26" y2="636.381" gradientUnits="userSpaceOnUse">
<stop offset="0.165309" stop-color="#00FF90"/>
<stop offset="0.830273" stop-color="#00A1FF"/>
</linearGradient>
<linearGradient id="paint3_linear_2034_192" x1="2235.91" y1="636.381" x2="3220.26" y2="636.381" gradientUnits="userSpaceOnUse">
<stop offset="0.165309" stop-color="#00FF90"/>
<stop offset="0.830273" stop-color="#00A1FF"/>
</linearGradient>
<linearGradient id="paint4_linear_2034_192" x1="2235.91" y1="636.381" x2="3220.26" y2="636.381" gradientUnits="userSpaceOnUse">
<stop offset="0.165309" stop-color="#00FF90"/>
<stop offset="0.830273" stop-color="#00A1FF"/>
</linearGradient>
<linearGradient id="paint5_linear_2034_192" x1="2235.91" y1="636.381" x2="3220.26" y2="636.381" gradientUnits="userSpaceOnUse">
<stop offset="0.165309" stop-color="#00FF90"/>
<stop offset="0.830273" stop-color="#00A1FF"/>
</linearGradient>
<linearGradient id="paint6_linear_2034_192" x1="2235.91" y1="636.381" x2="3220.26" y2="636.381" gradientUnits="userSpaceOnUse">
<stop offset="0.165309" stop-color="#00FF90"/>
<stop offset="0.830273" stop-color="#00A1FF"/>
</linearGradient>
<linearGradient id="paint7_linear_2034_192" x1="2235.91" y1="636.381" x2="3220.26" y2="636.381" gradientUnits="userSpaceOnUse">
<stop offset="0.165309" stop-color="#00FF90"/>
<stop offset="0.830273" stop-color="#00A1FF"/>
</linearGradient>
<linearGradient id="paint8_linear_2034_192" x1="2235.91" y1="636.381" x2="3220.26" y2="636.381" gradientUnits="userSpaceOnUse">
<stop offset="0.165309" stop-color="#00FF90"/>
<stop offset="0.830273" stop-color="#00A1FF"/>
</linearGradient>
<clipPath id="clip0_2034_192">
<rect width="5452" height="1565" fill="white"/>
</clipPath>
</defs>
</svg>
